<?xml version="1.0" standalone="no"?>
<!DOCTYPE svg PUBLIC "-//W3C//DTD SVG 1.1//EN" "http://www.w3.org/Graphics/SVG/1.1/DTD/svg11.dtd" >
<!--
2013-9-30: Created.
-->
<svg>
<metadata>
Created by iconfont
</metadata>
<defs>

<font id="mkfont" horiz-adv-x="1024" >
  <font-face
    font-family="mkfont"
    font-weight="500"
    font-stretch="normal"
    units-per-em="1024"
    ascent="896"
    descent="-128"
  />
    <missing-glyph />
    
    <glyph glyph-name="jujue" unicode="&#58957;" d="M861.000205 482.002051 845.554872 482.002051 845.554872 504.621949 695.302564 504.621949 695.302564 482.002051 679.857231 482.002051 679.857231 518.787282 766.372103 518.787282C763.004718 524.228923 759.177846 529.933128 754.891487 535.899897L768.551385 543.967179C773.960205 537.147077 778.706051 530.655179 782.802051 524.491487L773.500718 518.787282 861.000205 518.787282 861.000205 482.002051ZM825.166769 106.450051 836.844308 106.450051C844.767179 106.450051 849.316103 110.053744 850.504205 117.267692 852.092718 125.269333 853.339897 136.283897 854.265436 150.317949 859.149128 148.217436 864.164103 146.32041 869.310359 144.613744 868.128821 132.286359 866.737231 121.6 865.155282 112.548103 862.779077 98.514051 855.190974 91.497026 842.390974 91.497026L823.18441 91.497026C807.483077 91.497026 799.63241 99.498667 799.63241 115.501949L799.63241 277.996308 815.071179 277.996308 815.071179 205.010051C829.525333 217.403077 842.653538 230.518154 854.468923 244.355282L866.737231 233.340718C848.52841 214.777436 831.304205 198.879179 815.071179 185.632821L815.071179 118.252308C815.071179 110.381949 818.438564 106.450051 825.166769 106.450051ZM712.126359 381.275897 697.481846 381.275897 697.481846 477.669744 762.610872 477.669744 762.610872 498.917744 778.049641 498.917744 778.049641 477.669744 843.382154 477.669744 843.382154 381.275897 828.731077 381.275897 828.731077 390.524718 778.049641 390.524718 778.049641 347.634872 762.610872 347.634872 762.610872 390.524718 712.126359 390.524718 712.126359 381.275897ZM778.049641 404.289641 828.731077 404.289641 828.731077 427.506872 778.049641 427.506872 778.049641 404.289641ZM778.049641 440.884513 828.731077 440.884513 828.731077 463.898256 778.049641 463.898256 778.049641 440.884513ZM762.610872 463.898256 712.126359 463.898256 712.126359 440.884513 762.610872 440.884513 762.610872 463.898256ZM762.610872 404.289641 762.610872 427.506872 712.126359 427.506872 712.126359 404.289641 762.610872 404.289641ZM793.888821 135.371487C794.282667 129.463795 794.814359 123.956513 795.470769 118.843077 778.581333 108.484923 766.700308 100.942769 759.840821 96.216615 756.013949 93.466256 752.777846 90.709333 750.139077 87.958974L739.643077 100.745846C743.870359 104.546462 745.977436 110.125949 745.977436 117.464615L745.977436 277.996308 761.422769 277.996308 761.422769 217.796923 794.085744 217.796923 794.085744 203.237744 761.422769 203.237744 761.422769 115.305026C770.264615 120.418462 781.082256 127.107282 793.888821 135.371487ZM673.923282 156.612923 671.547077 173.141333C680.454564 175.563487 689.821538 178.32041 699.654564 181.398974L699.654564 227.236103 674.120205 227.236103 674.120205 241.401436 699.654564 241.401436 699.654564 280.155897 715.099897 280.155897 715.099897 241.401436 736.676103 241.401436 736.676103 227.236103 715.099897 227.236103 715.099897 186.22359C721.828103 188.448821 728.759795 190.779077 735.881846 193.207795 735.488 187.562667 735.225436 182.317949 735.094154 177.467077 728.694154 175.104 722.025026 172.714667 715.099897 170.285949L715.099897 110.185026C715.099897 96.413538 708.896821 89.271795 696.490667 88.746667 691.206564 88.484103 685.069128 88.418462 678.078359 88.549744 677.546667 93.794462 676.758974 99.170462 675.702154 104.677744 681.773949 104.027897 687.24841 103.693128 692.132103 103.693128 697.147077 103.693128 699.654564 106.38441 699.654564 111.76041L699.654564 165.074051C691.403487 162.317128 682.830769 159.501128 673.923282 156.612923ZM999.798154-128 410.066051-128C353.266872-128 307.094974-82.372923 307.094974-26.269538L307.094974 36.824615 334.762667 36.824615C349.58441 36.824615 362.620718 40.054154 374.101333 45.075692L374.101333-26.269538C374.101333-45.850256 390.229333-61.781333 410.066051-61.781333L999.798154-61.781333C1019.628308-61.781333 1035.762872-45.850256 1035.762872-26.269538L1035.762872 582.426256 1034.043077 584.244513 819.081846 584.244513C810.345026 584.244513 803.255795 591.228718 803.255795 599.867077L803.255795 829.801026 410.066051 829.801026C390.229333 829.801026 374.101333 813.883077 374.101333 794.289231L374.101333 662.121026C359.404308 673.982359 340.676923 681.10441 320.269128 681.10441 317.262769 681.10441 314.295795 680.946872 311.374769 680.644923 309.983179 681.058462 308.558769 681.472 307.094974 681.892103L307.094974 794.302359C307.094974 850.379487 353.266872 896 410.066051 896L819.08841 896C828.416 896 837.349744 892.146872 843.703795 885.379282L1093.855179 617.83959C1099.572513 611.72841 1102.769231 603.707077 1102.769231 595.377231L1102.769231-26.269538C1102.769231-82.372923 1056.571077-128 999.798154-128ZM834.921026 797.177436 834.921026 615.502769 1004.806564 615.502769 834.921026 797.177436ZM497.322667 561.00759C611.091692 447.947487 611.091692 264.644923 497.322667 151.591385 383.553641 38.537846 199.095795 38.537846 85.326769 151.591385-28.435692 264.651487-28.435692 447.947487 85.326769 561.00759 199.095795 674.061128 383.553641 674.061128 497.322667 561.00759ZM136.822154 202.771692C213.379282 126.693744 332.603077 118.89559 417.923282 179.31159L113.224205 482.107077C52.420923 397.312 60.278154 278.843077 136.822154 202.771692ZM164.726154 533.280821 469.418667 230.491897C530.228513 315.286974 522.377846 433.755897 445.820718 509.833846 369.270154 585.898667 250.052923 593.709949 164.726154 533.280821Z"  horiz-adv-x="1103" />

    
    <glyph glyph-name="shangjia" unicode="&#58975;" d="M680.130063 562.862241l-87.560556 87.560556c-0.794549 1.009048-1.649521 1.987884-2.582034 2.91939-12.260633 12.260633-31.757808 12.644313-43.546143 0.854971l-0.469278-0.469278c-0.189322-0.180259-0.382673-0.355483-0.567967-0.541784s-0.360518-0.378645-0.541784-0.567967l-88.888833-88.888833c-11.789341-11.789341-11.406668-31.28551 0.854971-43.546143s31.757808-12.644313 43.546143-0.854971l37.462653 37.462653 0-178.079776c0-16.686545 13.527481-30.214026 30.214026-30.214026s30.214026 13.527481 30.214026 30.214026L598.265289 555.92378l37.462653-37.462653c11.789341-11.789341 31.28551-11.406668 43.546143 0.854971C691.536732 531.576731 691.919405 551.0729 680.130063 562.862241zM894.092457 266.252608c-2.301072 0-4.636382 0.26485-6.973707 0.816704-16.237408 3.837805-26.289617 20.111466-22.453826 36.349881l81.548566 345.10031c2.215474 10.407691-0.043302 19.885891-6.716913 28.174783-9.354334 11.618145-25.463849 18.554592-43.092978 18.554592L752.970811 695.248879c-16.684531 0-30.211005 13.526474-30.211005 30.211005s13.526474 30.211005 30.211005 30.211005l143.433795 0c35.740626 0 69.444023-15.358268 90.156688-41.083946 18.226299-22.638113 24.845531-50.756502 18.637169-79.173981-0.036253-0.167168-0.073513-0.333328-0.112788-0.499489l-81.617044-345.390336C920.182681 275.622048 907.781063 266.252608 894.092457 266.252608zM383.390523 695.248879 178.061428 695.248879c-16.684531 0-30.211005 13.526474-30.211005 30.211005s13.526474 30.211005 30.211005 30.211005l205.329095 0c16.685538 0 30.211005-13.526474 30.211005-30.211005S400.076061 695.248879 383.390523 695.248879zM261.739869 200.43592c-14.296855 0-27.000582 10.188158-29.678284 24.752883l-98.292512 534.55755c-7.728982 34.438532-37.016537 59.384765-69.804541 59.384765L31.934825 819.131119c-16.684531 0-30.211005 13.526474-30.211005 30.211005s13.526474 30.211005 30.211005 30.211005l32.0287 0c61.119884 0 115.34461-45.152361 128.934527-107.362862 0.071499-0.327286 0.137964-0.654572 0.198386-0.984879l98.390194-535.090271c3.017072-16.410618-7.839756-32.159615-24.249367-35.177694C265.391373 200.599059 263.551523 200.43592 261.739869 200.43592zM348.64686-127.155099c-51.734332 0-93.82229 42.088965-93.82229 93.82229s42.087958 93.82229 93.82229 93.82229c51.733325 0 93.82229-42.088965 93.82229-93.82229S400.380185-127.155099 348.64686-127.155099zM348.64686 0.067471c-18.417636 0-33.40028-14.983651-33.40028-33.40028s14.982644-33.40028 33.40028-33.40028c18.416629 0 33.40028 14.983651 33.40028 33.40028S367.063489 0.067471 348.64686 0.067471zM789.49793-127.155099c-51.733325 0-93.82229 42.088965-93.82229 93.82229s42.088965 93.82229 93.82229 93.82229 93.821283-42.088965 93.821283-93.82229S841.231255-127.155099 789.49793-127.155099zM789.49793 0.067471c-18.416629 0-33.40028-14.983651-33.40028-33.40028s14.983651-33.40028 33.40028-33.40028 33.399273 14.983651 33.399273 33.40028S807.914558 0.067471 789.49793 0.067471zM788.09916 0.402813 282.838228 0.402813c-68.757226 0-124.694916 55.93769-124.694916 124.694916s55.93769 124.694916 124.694916 124.694916l348.281529 0c16.684531 0 30.211005-13.526474 30.211005-30.211005s-13.526474-30.211005-30.211005-30.211005L282.838228 189.370636c-35.44053 0-64.272906-28.833383-64.272906-64.272906s28.832376-64.272906 64.272906-64.272906l505.260932 0c16.684531 0 30.211005-13.526474 30.211005-30.211005S804.783691 0.402813 788.09916 0.402813zM804.718234 189.370636 528.947145 189.370636c-16.684531 0-30.211005 13.526474-30.211005 30.211005s13.526474 30.211005 30.211005 30.211005l275.771089 0c22.376284 0 49.582301 6.81661 61.450191 59.970859 3.634384 16.283732 19.78418 26.537347 36.067912 22.901956 16.283732-3.635391 26.538354-19.78418 22.901956-36.067912C909.700469 227.451607 866.934778 189.370636 804.718234 189.370636z"  horiz-adv-x="1024" />

    
    <glyph glyph-name="xiajia" unicode="&#58958;" d="M325.461333 213.276444l517.290667-1.28c24.177778 1.479111 44.344889 17.265778 50.261333 39.822223l100.437334 421.347555a49.152 49.152 0 0 1-8.817778 42.865778 56.803556 56.803556 0 0 1-44.942222 21.475556h-206.222223a25.258667 25.258667 0 1 1 0-50.488889h206.222223c3.299556 0 4.807111-1.536 4.750222-1.536l-100.408889-421.233778a5.12 5.12 0 0 0-2.787556-1.820445l-495.104 1.28-103.822222 423.310223h215.808a25.258667 25.258667 0 1 1 0 50.517333H229.916444l-28.103111 114.545778H53.845333a25.258667 25.258667 0 1 1 0-50.517334H162.133333l133.12-542.577777a102.257778 102.257778 0 0 1-71.111111-97.251556c0-30.577778 13.539556-58.026667 34.929778-76.771555a101.802667 101.802667 0 0 1-34.958222-76.771556 102.229333 102.229333 0 0 1 102.144-102.087111c56.32 0 102.144 45.795556 102.144 102.087111 0 18.801778-5.12 36.408889-14.051556 51.569778h365.027556a101.319111 101.319111 0 0 1-14.051556-51.569778 102.229333 102.229333 0 0 1 102.144-102.087111c56.32 0 102.144 45.795556 102.144 102.087111a102.229333 102.229333 0 0 1-102.115555 102.058667H326.257778l-1.564445-0.028445a51.626667 51.626667 0 0 0-50.062222 51.512889c0 28.16 22.727111 51.086222 50.801778 51.541333z m542.037334-153.514666c28.444444 0 51.598222-23.153778 51.598222-51.569778 0-28.444444-23.125333-51.598222-51.598222-51.598222-28.444444 0-51.598222 23.153778-51.598223 51.598222s23.125333 51.569778 51.598223 51.569778z m-542.663111-0.056889l1.450666-0.028445 0.995556 0.056889c27.989333-0.540444 50.631111-23.438222 50.631111-51.541333a51.655111 51.655111 0 0 0-103.224889 0c0 27.932444 22.357333 50.744889 50.147556 51.512889z m147.712 548.408889l107.463111-103.708445 0.768-0.654222 0.938666-0.853333 0.967111-0.682667a24.945778 24.945778 0 0 1 1.024-0.739555l0.967112-0.597334 1.137777-0.654222 0.967111-0.455111c0.426667-0.199111 0.853333-0.426667 1.308445-0.597333a58.652444 58.652444 0 0 1 2.304-0.824889l0.768-0.199111c0.568889-0.113778 1.080889-0.284444 1.621333-0.369778l0.711111-0.113778 1.706667-0.256h0.597333c0.597333-0.056889 1.194667-0.113778 1.792-0.113778l1.735111 0.085334 0.654223 0.028444c0.568889 0.056889 1.137778 0.170667 1.649777 0.256l0.768 0.113778 1.564445 0.369778 0.824889 0.199111c0.483556 0.142222 0.967111 0.341333 1.422222 0.512l0.881778 0.312889c0.455111 0.170667 0.853333 0.369778 1.28 0.568888 0.341333 0.170667 0.654222 0.284444 0.967111 0.483556l1.137778 0.654222 0.995555 0.568889 1.024 0.739556 0.967111 0.739555 0.910223 0.796445 0.768 0.682666 107.463111 103.736889a25.230222 25.230222 0 1 1-35.100445 36.323556l-64.654222-62.407111v259.413333a25.258667 25.258667 0 0 1-50.545778 0v-259.413333l-64.654222 62.407111a25.258667 25.258667 0 1 1-35.100444-36.323556z"  horiz-adv-x="1024" />

    
    <glyph glyph-name="shenhe1" unicode="&#58984;" d="M848 626.7c-156.8 0-276.3 33.6-336 89.6-63.5-56-179.2-89.6-336-89.6-22.4 0-37.3 14.9-37.3 37.3s14.9 37.3 37.3 37.3c205.3 0 272.5 56 294.9 78.4 0 0 3.7 3.7 3.7 7.5v7.4c0 22.4 14.9 37.3 37.3 37.3 18.7 0 37.3-14.9 37.3-37.3v-3.7c3.7-3.7 3.7-7.5 3.7-7.5 22.4-26.1 89.6-82.1 294.9-82.1 22.4 0 37.3-14.9 37.3-37.3s-14.7-37.3-37.1-37.3z m-317.3-687c-7.5-3.7-11.2-3.7-18.7-3.7s-11.2 0-18.7 3.7c-22.4 7.5-41.1 14.9-59.7 22.4C243.2 33 142.4 148.8 138.7 350.4V496c0 22.4 14.9 37.3 37.3 37.3s37.3-14.9 37.3-37.3v-145.6c3.7-168 82.1-257.6 246.4-321.1 14.9-7.5 33.6-11.2 52.3-18.7 18.7 7.5 33.6 11.2 52.3 18.7C728.6 92.8 807 182.4 810.7 350.4V496c0 22.4 14.9 37.3 37.3 37.3s37.3-14.9 37.3-37.3v-149.3c-3.7-201.6-104.5-317.3-294.9-388.3-18.7-3.7-37.3-11.2-59.7-18.7z m-67.2 634.7l82.1 7.5c3.7-11.2 7.5-26.1 14.9-44.8h171.7v-89.6H665v37.3H358.9v-37.3h-67.2v89.6h182.9c-3.7 14.9-7.4 29.8-11.1 37.3zM325.3 186.1V440h153.1v37.3h67.2V440h153.1v-253.9h-63.5v22.4h-89.6v-93.3h-67.2v93.3h-89.6v-22.4h-63.5z m309.9 201.6h-89.6v-41.1h89.6v41.1z m-246.4-41h89.6v41.1h-89.6v-41.1z m0-89.6h89.6v41.1h-89.6v-41.1z m156.8 0h89.6v41.1h-89.6v-41.1z"  horiz-adv-x="1024" />

    
    <glyph glyph-name="166991" unicode="&#58959;" d="M227.555556 753.777778a85.333333 85.333333 0 0 1-85.333334-85.333334v-568.888888a85.333333 85.333333 0 0 1 85.333334-85.333334h568.888888a85.333333 85.333333 0 0 1 85.333334 85.333334V668.444444a85.333333 85.333333 0 0 1-85.333334 85.333334H227.555556z m0 56.888889h568.888888a142.222222 142.222222 0 0 0 142.222223-142.222223v-568.888888a142.222222 142.222222 0 0 0-142.222223-142.222223H227.555556a142.222222 142.222222 0 0 0-142.222223 142.222223V668.444444a142.222222 142.222222 0 0 0 142.222223 142.222223zM284.444444 753.777778v-256h455.111112V753.777778h56.888888v-264.760889c0-26.567111-25.457778-48.128-56.888888-48.128H284.444444c-31.431111 0-56.888889 21.560889-56.888888 48.128V753.777778h56.888888zM625.777778 696.8888890000001m28.444444 0l0 0q28.444444 0 28.444445-28.444445l0-85.333333q0-28.444444-28.444445-28.444444l0 0q-28.444444 0-28.444444 28.444444l0 85.333333q0 28.444444 28.444444 28.444445Z"  horiz-adv-x="1024" />

    
    <glyph glyph-name="jizhen" unicode="&#59263;" d="M873.6 686.4H692.8V806.4c0 33.6-27.2 59.2-60.8 59.2h-240c-33.6 0-59.2-27.2-59.2-59.2v-120H153.6c-65.6 0-120-54.4-120-120v-478.4c0-65.6 54.4-120 120-120h720c65.6 0 120 54.4 120 120V566.4c0 65.6-54.4 120-120 120m-480 120h240v-120h-240V806.4m360-539.2H572.8v-179.2h-120V267.2H273.6v120h179.2V566.4h120v-179.2H752v-120h1.6m0 0"  horiz-adv-x="1024" />

    
    <glyph glyph-name="menzhen" unicode="&#58952;" d="M950.296823 568.78658a251.447189 251.447189 0 0 0 0-355.601898L682.746993-54.342371999999955a251.447189 251.447189 0 0 0-355.601898 0l-253.49703 253.49703a251.447189 251.447189 0 0 0 0 355.601898L341.106791 822.260834a251.447189 251.447189 0 0 0 355.601898 0zM809.951028 331.64272800000003v104.769662a44.754866 44.754866 0 0 1-45.848115 45.848115h-150.595001v150.526673a44.754866 44.754866 0 0 1-45.848115 45.848115h-111.329154a44.754866 44.754866 0 0 1-45.848115-45.848115v-143.989957h-150.595001a44.754866 44.754866 0 0 1-45.848115-45.848115v-111.306378a44.754866 44.754866 0 0 1 45.848115-45.848115h150.617777v-150.617777a44.754866 44.754866 0 0 1 45.848115-45.848115h104.769662a44.754866 44.754866 0 0 1 45.848115 45.848115V285.749061h150.617777a55.596249 55.596249 0 0 1 52.362055 45.893667z"  horiz-adv-x="1024" />

    
    <glyph glyph-name="bingchuang" unicode="&#58955;" d="M906 106.5h-16.6c-6.1 0-11-5-11-11v-50.2c0-6.1-5-11-11-11h-63.5c-6.1 0-11 5-11 11v50.2c0 6.1-5 11-11 11h-573c-6.1 0-11-5-11-11v-50.2c0-6.1-5-11-11-11h-63.5c-6.1 0-11 5-11 11V605.5c0 6.1 5 11 11 11h30.9c24.1 0 43.6-19.5 43.6-43.6v-312.2c0-6.1 5-11 11-11H906c6.1 0 11-5 11-11v-121.2c0-6.1-5-11-11-11zM397.3 416.7c-24.1 101.6-88 160.7-169 146.8-8.3-1.5-13.4-10-10.8-17.9C250 444 315.5 430 397.3 416.7z m-176.4-13.8v-130.3h666.8c27 23.3 20.7 115.9-3.1 130.3H220.9z m634.5 323.5h-167c-11.5 0-20.9-9.4-20.9-20.9v-167c0-11.5 9.4-20.9 20.9-20.9h167c11.5 0 20.9 9.4 20.9 20.9v167c-0.2 11.5-9.5 20.9-20.9 20.9z m-13.1-122.7c0-1.4-0.6-2.7-1.6-3.7s-2.3-1.6-3.7-1.6h-36.5c-1.4 0-2.7-0.6-3.7-1.6s-1.5-2.3-1.5-3.7v-36.5c0-3-2.4-5.2-5.2-5.2h-36.5c-1.4 0-2.7 0.6-3.7 1.5-1 1-1.6 2.3-1.6 3.7V593c0 1.4-0.6 2.7-1.6 3.7s-2.3 1.6-3.7 1.6h-36.5c-1.4 0-2.7 0.6-3.7 1.6s-1.5 2.3-1.5 3.7v36.5c0 1.4 0.6 2.7 1.5 3.7 1 1 2.3 1.6 3.7 1.6H743c1.4 0 2.7 0.6 3.7 1.6s1.6 2.3 1.6 3.7v36.5c0 1.4 0.6 2.7 1.6 3.7s2.3 1.6 3.7 1.6H790c3 0 5.2-2.3 5.2-5.2V651c0-1.4 0.6-2.7 1.5-3.7 1-1 2.3-1.6 3.7-1.6h36.5c1.4 0 2.7-0.6 3.7-1.6s1.6-2.3 1.6-3.7l0.1-36.7z"  horiz-adv-x="1024" />

    
    <glyph glyph-name="yuanquan" unicode="&#58956;" d="M113.4 425.7a391.7 391.7 0 1 1 783.4 0 391.7 391.7 0 1 1-783.4 0zM505.1 6C273.7 6 85.4 194.3 85.4 425.7S273.7 845.4 505.1 845.4s419.7-188.3 419.7-419.7S736.5 6 505.1 6z m0 783.4c-200.6 0-363.7-163.2-363.7-363.7S304.5 62 505.1 62s363.7 163.2 363.7 363.7-163.1 363.7-363.7 363.7z"  horiz-adv-x="1024" />

    
    <glyph glyph-name="quanxian" unicode="&#59247;" d="M604 522.9c0-50.9-41.8-92.1-92-92.1-50.8 0-92 41.3-92 92.1s41.2 92.1 92 92.1c50.2 0.6 92-41.3 92-92.1z m-276.7 0c0-84.3 55.4-151.9 129.6-177 5.2-1.8 8.7-6.7 8.7-12.2V121c0-7.1 5.8-12.9 12.9-12.9h66.2c7.1 0 12.9 5.8 12.9 12.9v20.5c0 7.1 5.8 12.9 12.9 12.9H591c7.1 0 12.9 5.8 12.9 12.9v66.3c0 7.1-5.8 12.9-12.9 12.9h-20.5c-7.1 0-12.9 5.8-12.9 12.9v73.8c0 5.8 3.8 10.8 9.4 12.4 73.8 21.6 129 93.2 129 177.3 0 101.7-83 184.8-184.6 184.8-101.1 0-184.1-83.1-184.1-184.8zM521 893.7l431.4-146.9c12.1-4.1 20.2-15.5 20.2-28.3v-365.2c0-166.1-97.1-314.2-249-378.6l-208.8-95.9c-8-3.7-17.2-3.6-25.1 0.1L295-30.3C142.7 38.6 50.7 181.6 50.7 343.2V718.5c0 12.8 8.1 24.1 20.2 28.3L501.7 893.7C508 895.8 514.8 895.8 521 893.7z"  horiz-adv-x="1024" />

    
    <glyph glyph-name="jieshu" unicode="&#59118;" d="M514.048-103.424C235.52-103.424 8.192 123.904 8.192 404.48c0 161.792 79.872 315.392 210.944 411.648 14.336 10.24 32.768 6.144 43.008-6.144 10.24-14.336 6.144-32.768-6.144-43.008C139.264 683.008 69.632 547.84 69.632 404.48c0-245.76 198.656-444.416 444.416-444.416S960.512 158.72 960.512 404.48c0 141.312-67.584 276.48-184.32 360.448-14.336 8.192-16.384 28.672-6.144 43.008 10.24 12.288 28.672 16.384 43.008 6.144C942.08 717.824 1021.952 566.272 1021.952 404.48c0-280.576-227.328-507.904-507.904-507.904zM530.432 357.376c-16.384 0-30.72 14.336-30.72 30.72V855.04c0 16.384 14.336 30.72 30.72 30.72s30.72-14.336 30.72-30.72v-466.944c0-16.384-12.288-30.72-30.72-30.72z"  horiz-adv-x="1024" />

    
    <glyph glyph-name="weixin3" unicode="&#59023;" d="M146.285714 896h731.428572a146.285714 146.285714 0 0 0 146.285714-146.285714v-731.428572a146.285714 146.285714 0 0 0-146.285714-146.285714H146.285714a146.285714 146.285714 0 0 0-146.285714 146.285714V749.714286a146.285714 146.285714 0 0 0 146.285714 146.285714zM411.062857 676.571429C265.508571 676.571429 146.285714 581.046857 146.285714 459.812571c0-69.997714 39.68-127.451429 105.947429-171.995428l-26.477714-76.690286 92.562285 44.690286c33.133714-6.326857 59.684571-12.8 92.745143-12.8a325.485714 325.485714 0 0 1 24.722286 1.024 183.844571 183.844571 0 0 0-8.155429 53.394286c0 111.286857 99.364571 201.654857 225.133715 201.654857 8.557714 0 17.078857-0.621714 25.490285-1.499429C655.323429 600.283429 541.293714 676.571429 411.062857 676.571429z m-86.016-172.105143c-19.821714 0-39.862857 12.8-39.862857 31.890285 0 19.2 20.041143 31.817143 39.862857 31.817143s33.060571-12.617143 33.060572-31.817143c0-19.090286-13.202286-31.890286-33.060572-31.890285z m185.344 0c-19.858286 0-39.753143 12.8-39.753143 31.890285 0 19.2 19.931429 31.817143 39.753143 31.817143 19.931429 0 33.133714-12.617143 33.133714-31.817143 0-19.090286-13.202286-31.890286-33.133714-31.890285zM877.714286 290.486857c0 102.765714-101.705143 186.587429-215.954286 186.587429-120.978286 0-216.246857-83.821714-216.246857-186.587429 0-102.985143 95.268571-186.660571 216.246857-186.660571 25.307429 0 50.834286 6.436571 76.288 12.909714l69.741714-38.619429-19.126857 64.292572C839.68 181.138286 877.714286 232.484571 877.714286 290.486857z m-286.061715 32.146286c-12.653714 0-25.453714 12.726857-25.453714 25.709714 0 12.836571 12.763429 25.746286 25.453714 25.746286 19.236571 0 31.817143-12.909714 31.817143-25.746286 0-12.982857-12.580571-25.709714-31.817143-25.709714z m139.849143 0c-12.580571 0-25.270857 12.726857-25.270857 25.709714 0 12.836571 12.690286 25.746286 25.270857 25.746286 19.053714 0 31.817143-12.909714 31.817143-25.746286 0-12.982857-12.763429-25.709714-31.817143-25.709714z"  horiz-adv-x="1024" />

    
    <glyph glyph-name="huiyuan22" unicode="&#58972;" d="M663.9 748.7H362.1c-34.4 0-67.4-14-91.8-38.9L62.5 497c-19.3-19.8-19.3-51.9 0-71.7l404.1-413.7c25.6-26.2 67.2-26.2 92.8 0l404.1 413.7c19.3 19.8 19.3 51.9 0 71.7L755.6 709.8c-24.3 24.9-57.3 38.9-91.7 38.9zM62.5 497c-19.3-19.8-19.3-51.9 0-71.7l8.7-8.9c2.1 38.6 9.4 75.9 21.1 111.1L62.5 497zM963.5 497L861.3 601.6c34.9-61.5 54.8-132.6 54.8-208.3 0-5.6-0.1-11.2-0.3-16.8l47.7 48.8c19.3 19.8 19.3 51.9 0 71.7zM160 596.8l-67.7-69.3c-11.8-35.2-19-72.4-21.1-111.1l41.4-42.4c-1.4 12.8-2.1 25.9-2.1 39.1 0 67 18 129.7 49.5 183.7zM861.3 601.6L755.6 709.8c-24.3 24.9-57.3 38.9-91.8 38.9h-45C749 693 840.1 563.7 840.1 413.2c0-51.3-10.6-100.2-29.8-144.5l105.4 107.9c0.2 5.6 0.3 11.2 0.3 16.8 0.1 75.6-19.8 146.7-54.7 208.2zM427.8 51.3l38.8-39.7c25.6-26.2 67.2-26.2 92.8 0l68.3 69.9c-46.4-21.3-98-33.2-152.3-33.2-16.2 0-32 1-47.6 3zM618.8 748.7H362.1c-34.4 0-67.4-14-91.8-38.9L160 596.8c-31.5-53.9-49.5-116.7-49.5-183.7 0-13.2 0.7-26.2 2.1-39.1l64.3-65.8c-17 38.1-26.4 80.3-26.4 124.8 0 169.5 137.4 306.9 306.9 306.9S764.3 602.5 764.3 433s-137.5-306.9-307-306.9c-47 0-91.5 10.6-131.3 29.4l101.8-104.2c15.6-2 31.4-3.1 47.5-3.1 54.4 0 106 11.9 152.3 33.2l182.8 187.1c19.1 44.3 29.8 93.2 29.8 144.5 0 150.7-91.2 279.9-221.4 335.7zM764.3 433c0 169.5-137.4 306.9-306.9 306.9s-307-137.4-307-306.9c0-44.4 9.5-86.6 26.4-124.8L326 155.5c39.8-18.9 84.3-29.4 131.3-29.4 169.5 0 307 137.4 307 306.9z m-574 19.9c0 137.5 111.5 249 249 249s249-111.5 249-249-111.5-249-249-249-249 111.5-249 249zM688.3 452.9c0 137.5-111.5 249-249 249s-249-111.5-249-249 111.5-249 249-249 249 111.5 249 249z m-267-171.2c-105.5 0-191.1 85.5-191.1 191.1s85.5 191.1 191.1 191.1 191.1-85.5 191.1-191.1-85.6-191.1-191.1-191.1zM421.3 663.8c-105.5 0-191.1-85.5-191.1-191.1s85.5-191.1 191.1-191.1 191.1 85.5 191.1 191.1-85.6 191.1-191.1 191.1z m-18-304.3c-73.5 0-133.1 59.6-133.1 133.1s59.6 133.1 133.1 133.1 133.1-59.6 133.1-133.1-59.6-133.1-133.1-133.1zM403.3 492.6m-133.1 0a133.1 133.1 0 1 1 266.2 0 133.1 133.1 0 1 1-266.2 0ZM663.9 730.7c14.7 0 29-2.9 42.6-8.7s25.8-14.1 36.3-24.8l207.9-212.8c12.5-12.8 12.5-33.7 0-46.5L546.5 24.2c-9-9.2-20.9-14.3-33.5-14.3-12.6 0-24.5 5.1-33.5 14.3L75.4 437.9c-12.5 12.8-12.5 33.7 0 46.5l207.9 212.8c10.4 10.7 22.6 19 36.3 24.8 13.6 5.8 27.9 8.7 42.6 8.7h301.7m0 18H362.1c-34.4 0-67.4-14-91.8-38.9L62.5 497c-19.3-19.8-19.3-51.9 0-71.7l404.1-413.7c12.8-13.1 29.6-19.7 46.4-19.7s33.6 6.6 46.4 19.7l404.1 413.7c19.3 19.8 19.3 51.9 0 71.7L755.6 709.8c-24.3 24.9-57.3 38.9-91.7 38.9zM585.5 596.6h-145c-16.5 0-32.4-6.7-44.1-18.6l-99.9-101.6c-9.3-9.5-9.3-24.8 0-34.2l194.2-197.6a31.21 31.21 0 0 1 44.6 0l194.2 197.6c9.3 9.5 9.3 24.8 0 34.2L629.6 578c-11.7 11.9-27.6 18.6-44.1 18.6zM222 549.2c-4.6 0-9.2 1.7-12.7 5.2-7.1 7-7.1 18.4-0.1 25.5l87.4 88.1c7 7.1 18.4 7.1 25.5 0.1s7.1-18.4 0.1-25.5l-87.4-88.1c-3.5-3.5-8.2-5.3-12.8-5.3zM172.4 499.2c-4.6 0-9.2 1.7-12.7 5.2-7.1 7-7.1 18.4-0.1 25.5l7.4 7.5c7 7.1 18.4 7.1 25.5 0.1s7.1-18.4 0.1-25.5l-7.4-7.5c-3.6-3.6-8.2-5.3-12.8-5.3z"  horiz-adv-x="1024" />

    
    <glyph glyph-name="iconpaycash" unicode="&#58944;" d="M697.023994 445.696154 234.466056 445.696154c0-17.022699-13.800307-30.837332-30.838356-30.837332l0-154.186661c17.038048 0 30.838356-13.798261 30.838356-30.837332l462.557938 0c0 17.038048 13.798261 30.837332 30.837332 30.837332L727.861326 414.858822C710.822255 414.858822 697.023994 428.673455 697.023994 445.696154zM542.836309 368.602312l0-30.837332-61.673641 0 0-15.418154 61.673641 0 0-30.836309-61.673641 0 0-46.257533-30.838356 0 0 46.257533-61.673641 0 0 30.836309 61.673641 0 0 15.418154-61.673641 0 0 30.837332 47.072085 0-62.49024 61.674665 46.255487 0 46.25651-46.257533 46.255487 46.257533 46.254463 0-64.787562-61.674665L542.836309 368.602312zM826.360687 803.166685 197.638289 803.166685c-57.840336 0-104.784508-46.944172-104.784508-104.784508l0-628.722398c0-57.840336 46.944172-104.784508 104.784508-104.784508l628.722398 0c57.840336 0 104.784508 46.944172 104.784508 104.784508L931.145196 698.382177C931.145196 756.222513 884.201024 803.166685 826.360687 803.166685zM758.696612 198.998519 172.790368 198.998519 172.790368 476.532463l30.821983 0 0.014326 0 0.01535 0 524.20088 0 0.01535 0 0.016373 0 30.820959 0L758.695588 198.998519zM851.208609 276.090315l-61.674665 0 0 30.838356c0 17.036002 13.800307 30.837332 30.838356 30.837332L820.3723 507.368772c-17.038048 0-30.838356 13.800307-30.838356 30.838356L326.976006 538.207128c0-17.038048-13.798261-30.838356-30.837332-30.838356l-30.836309 0 0 61.675688 30.820959 0 0.01535 0 0.016373 0 524.20088 0 0.016373 0 0.014326 0 30.821983 0L851.208609 276.090315z"  horiz-adv-x="1024" />

    
    <glyph glyph-name="zhifubao" unicode="&#58954;" d="M51.2 243.2c-10.24-43.52 17.92-151.04 186.88-151.04 104.96 0 204.8 64 286.72 168.96-115.2 56.32-212.48 84.48-320 84.48-94.72 0-143.36-58.88-153.6-102.4zM256 15.36c-161.28 0-266.24 99.84-253.44 220.16 7.68 79.36 64 209.92 299.52 186.88 125.44-12.8 181.76-35.84 281.6-69.12 25.6 48.64 48.64 99.84 64 156.16H197.12v43.52h222.72v79.36h-268.8v51.2H422.4V798.72s2.56 17.92 23.04 17.92h110.08v-133.12H844.8v-48.64H555.52v-79.36h235.52c-20.48-89.6-53.76-168.96-94.72-240.64 51.2-17.92 238.08-76.8 327.68-104.96v537.6C1024 829.44 957.44 896 875.52 896H148.48C66.56 896 0 829.44 0 747.52v-727.04C0-61.44 66.56-128 148.48-128h727.04c81.92 0 148.48 66.56 148.48 148.48v12.8c-97.28 43.52-289.28 125.44-399.36 179.2C522.24 89.6 417.28 15.36 256 15.36z"  horiz-adv-x="1024" />

    
    <glyph glyph-name="yinlian" unicode="&#59079;" d="M618.069333-22.016C604.330667-81.237333 542.378667-128 483.242667-128H86.784c-60.586667 0-97.706667 48.213333-83.882667 105.984l198.144 812.032C214.784 849.237333 276.736 896 335.872 896h395.093333c60.586667 0 97.706667-48.213333 83.968-105.984l-196.864-812.032zM1044.736-22.016c-13.738667-59.221333-75.690667-105.984-136.277333-105.984H461.226667c-60.586667 0-97.792 48.213333-83.968 105.984l198.144 812.032C589.226667 849.237333 651.093333 896 711.68 896h447.317333c60.586667 0 97.706667-48.213333 83.968-105.984l-198.229333-812.032zM1450.752-22.016c-13.738667-59.221333-75.690667-105.984-136.192-105.984h-395.093333c-60.586667 0-97.706667 48.213333-83.882667 105.984l198.144 812.032C1047.466667 849.237333 1109.418667 896 1168.554667 896h395.093333c60.586667 0 97.706667-48.213333 83.968-105.984L1450.666667-22.016zM287.744 624.896H228.693333l-35.84-169.301333s-17.92-67.413333 71.68-67.413334c54.954667 0 97.621333 9.557333 111.445334 50.858667L426.666667 624.896h-50.858667L327.68 447.317333s-6.826667-22.016-30.293333-26.197333c-22.016-6.826667-50.944 4.181333-46.762667 26.197333l37.12 177.493334zM594.773333 494.08l-22.016-108.714667h49.493334l26.197333 108.714667H594.773333z m59.221334 30.293333c-2.816-11.008-19.285333-20.650667-34.474667-20.650666-15.104 0-26.112 9.642667-22.016 20.650666 2.816 11.093333 19.285333 20.650667 34.474667 20.650667 15.104 1.365333 26.112-8.277333 22.016-20.650667z m525.653333 104.618667c37.205333-9.642667 56.490667-45.397333 20.736-103.253333-38.570667-63.317333-134.826667-53.674667-134.826667-53.674667l-17.92-86.698667h-64.768l59.221334 250.538667c0-1.450667 96.341333 2.730667 137.642666-6.912z m-30.208-77.056c20.650667 55.04-55.04 42.666667-55.04 42.666667l-19.285333-82.602667c42.666667 0 60.586667 2.730667 74.325333 39.936z m129.365333-100.522667c-6.826667-22.016-20.650667-39.850667-33.024-39.850666-12.373333 0-16.469333 17.92-11.008 39.850666 5.546667 22.016 20.650667 39.936 33.024 39.936 12.373333 0 17.92-17.92 11.093334-39.936z m-97.706666-5.461333c-12.373333-89.514667 63.317333-60.586667 67.413333-55.04 2.816-2.816 4.181333-5.546667 9.642667-5.546667h55.04l31.658666 139.093334-57.770666-9.728c-16.554667 22.016-93.610667 12.373333-105.984-68.778667z m192.682666 75.690667l55.04 9.642666 4.181334-79.872 34.389333 72.96 55.04 9.642667s-139.008-243.626667-144.554667-251.904c-5.461333-8.192-8.192-15.104-16.469333-15.104h-42.666667l5.461334 28.928 13.824 1.365333 50.858666 81.152-15.104 143.189334zM696.576 218.88l9.557333 30.208h132.181334l-9.642667-30.208h-53.76l-8.192-29.013333h52.309333l-9.642666-30.208h-52.309334l-12.373333-42.666667c-2.730667-6.826667 4.096-9.642667 13.738667-9.642667h26.197333l-8.277333-26.112h-61.952c-15.104 0-23.381333 8.192-17.92 24.746667l16.554666 55.04h-34.389333l9.642667 30.293333h34.389333l8.277333 28.928h-34.389333v-1.365333z m9.557333 41.216l6.912 23.466667 13.738667 1.365333c6.912 0 11.093333 6.826667 13.824 11.008l11.008 26.112h49.493333l-8.192-20.650667h55.04l-8.277333-28.842666h-71.594667c-8.192-11.093333-22.016-13.824-33.024-13.824l-28.928 1.365333z m166.570667 59.221333h41.301333l-5.546666-17.92s26.197333 17.92 53.76 17.92h74.24l-33.024-108.714666c-2.730667-12.373333-13.653333-19.285333-33.024-19.285334h-89.429334l-23.381333-75.690666c-1.365333-4.181333 0-6.826667 5.461333-6.826667h24.746667l-6.826667-27.562667H828.586667c-16.554667 0-20.650667 12.373333-17.92 23.381334l61.952 214.698666z m12.373333-99.072h67.413334c5.546667 0 8.277333 2.730667 8.277333 6.826667l5.546667 12.373333h-74.325334l-6.826666-19.2z m12.373334-119.808l6.912 82.602667h41.301333l-1.365333-17.92h11.008c5.461333 0 8.277333 2.816 8.277333 6.912l2.730667 11.093333h34.389333l-5.461333-16.554666c-5.546667-13.824-15.189333-22.016-31.658667-22.016h-22.016l-1.450667-30.293334c0-5.546667 4.181333-6.826667 12.458667-6.826666h20.650667l-6.912-23.466667h-48.213334c-15.104-2.730667-22.016 2.730667-20.650666 16.469333z m33.109333 165.205334h44.032l6.826667 22.016h-74.24l-9.728-28.928c-1.365333 0 17.92 6.826667 33.109333 6.826666z m286.208-41.301334l9.642667 30.293334h148.650666l-9.642666-30.293334h-46.762667l-9.642667-24.746666h46.762667l-9.642667-30.293334h-52.224l-5.546666-15.189333h19.285333l5.461333-39.850667c1.450667-4.181333 4.181333-5.546667 9.642667-5.546666h8.277333l-9.642666-28.928h-27.477334c-15.189333-1.365333-23.466667 4.181333-23.466666 13.824l-6.826667 33.024-24.746667-35.84c-5.546667-9.557333-13.824-13.653333-26.197333-12.373334h-48.213333l8.277333 29.013334h19.285333c5.546667 0 9.642667 2.645333 15.104 6.826666l38.570667 53.674667h-46.762667l9.642667 30.293333h50.858667l8.277333 24.746667-50.944 1.365333zM1081.941333 123.904h37.12l9.642667 33.024h-37.12l-9.642667-33.024z m66.048 97.706667h-37.205333l-9.557333-33.024h37.12l9.642666 33.024z m20.650667 63.317333h-37.205333l-9.642667-33.024h37.205333l9.642667 33.024z m140.373333 11.008l-8.277333-28.928h-38.485333c-12.458667-1.365333-19.285333 4.096-19.285334 16.554667v13.653333l-31.658666-12.288-49.493334-161.024h16.469334l-8.277334-30.293333h-13.738666l-4.181334-13.824h-44.032l4.181334 13.824h-100.522667l8.277333 26.112 11.008 5.546666 60.586667 195.413334h46.762667l-6.826667-17.92s28.842667 17.92 45.397333 17.92h108.714667l1.365333-16.469334c0-4.181333 2.730667-6.912 6.826667-6.912h15.189333v-1.365333zM808.021333 451.413333c-11.008-38.485333-39.936-71.509333-89.429333-71.509333-34.474667 0-59.221333 22.016-48.213333 74.24 8.277333 42.666667 44.032 75.776 83.968 75.776 41.301333 1.365333 70.229333-22.016 53.674666-78.506667z m-57.770666 48.213334c-15.189333 0-26.197333-20.650667-31.658667-44.032-5.546667-23.381333-2.816-42.666667 12.373333-42.666667 15.104 0 26.112 19.285333 31.573334 42.666667 4.266667 23.381333 1.450667 44.032-12.288 44.032zM527.274667 525.653333a144.042667 144.042667 0 0 1-39.936-16.469333l5.461333 22.016-57.770667-11.093333-26.112-134.826667h48.128l24.746667 99.072c13.824 12.458667 33.109333 11.093333 23.466667-26.112l-15.189334-72.96h52.309334l22.016 104.618667c5.546667 31.573333-13.738667 39.936-37.12 35.84z m412.842666 0a144.042667 144.042667 0 0 1-39.850666-16.469333l5.461333 22.016-57.770667-11.093333-26.197333-134.826667h48.213333l24.746667 99.072c13.738667 12.458667 33.024 11.093333 23.381333-26.112l-15.104-72.96h52.309334l22.016 104.618667c5.461333 31.573333-13.738667 39.936-37.205334 35.84z"  horiz-adv-x="1706" />

    
    <glyph glyph-name="data" unicode="&#58943;" d="M1189.647-128h-1174.588c-8.312 0-15.059 6.746-15.059 15.059v30.118c0 8.312 6.746 15.059 15.059 15.059h105.412v542.148c0 33.25 26.955 60.235 60.235 60.235h240.941v120.44c0 33.28 26.955 60.235 60.235 60.235h240.941v120.501c0 33.25 26.955 60.235 60.235 60.235h240.941c33.25 0 60.235-26.985 60.235-60.235v-903.56h105.412c8.312 0 15.059-6.746 15.059-15.059v-30.118c0-8.312-6.746-15.059-15.059-15.059zM421.647 474.383h-240.941v-542.148h240.941v542.148zM722.824 655.089h-240.941v-722.854h240.941v722.854zM1024 835.765h-240.941v-903.529h240.941v903.529z"  horiz-adv-x="1205" />

    
    <glyph glyph-name="fangan" unicode="&#58974;" d="M347.269565-38.956522h333.913044c17.808696 0 35.617391-13.356522 35.617391-35.617391 0-17.808696-13.356522-35.617391-35.617391-35.617391H347.269565c-17.808696 0-35.617391 13.356522-35.617391 35.617391s13.356522 35.617391 35.617391 35.617391zM712.347826 5.565217H311.652174c-26.713043 0-44.521739 17.808696-44.521739 44.52174v80.13913c-111.304348 80.13913-178.086957 209.252174-178.086957 342.817391C89.043478 704.556522 280.486957 896 512 896S934.956522 704.556522 934.956522 473.043478c0-138.017391-66.782609-267.130435-178.086957-342.817391V50.086957c0-26.713043-17.808696-44.521739-44.521739-44.52174z m-378.434783 66.782609h356.173914v89.043478l26.713043 17.808696c93.495652 66.782609 151.373913 173.634783 151.373913 289.391304 0 195.895652-160.278261 356.173913-356.173913 356.173913s-356.173913-160.278261-356.173913-356.173913c0-115.756522 57.878261-222.608696 151.373913-289.391304l26.713043-17.808696v-89.043478zM565.426087 677.843478c0-22.26087 17.808696-40.069565 40.069565-40.069565 66.782609 0 120.208696-53.426087 120.208696-120.208696 0-22.26087 17.808696-40.069565 40.069565-40.069565s35.617391 22.26087 35.617391 44.521739C801.391304 628.869565 712.347826 717.913043 605.495652 717.913043c-22.26087 0-40.069565-17.808696-40.069565-40.069565z"  horiz-adv-x="1024" />

    
    <glyph glyph-name="shixin" unicode="&#59189;" d="M722.707692 777.846154c-59.076923 0-118.153846-19.692308-167.384615-53.169231l-3.938462-1.969231 27.569231-82.707692 5.907692 5.907692c37.415385 33.476923 86.646154 51.2 135.876924 53.169231 49.230769 0 94.523077-17.723077 128-49.230769 33.476923-31.507692 51.2-74.830769 51.2-122.092308 0-61.046154-27.569231-120.123077-90.584616-192.984615-49.230769-57.107692-120.123077-122.092308-189.046154-183.138462L474.584615 324.923077l106.338462 104.369231-135.876923 106.338461 80.738461 118.153846 1.969231 1.969231v13.784616L492.307692 703.015385v1.96923C439.138462 752.246154 370.215385 777.846154 299.323077 777.846154 151.630769 777.846154 35.446154 667.569231 35.446154 525.784615c0-171.323077 157.538462-307.2 393.846154-513.96923l80.738461-68.923077 59.076923 51.2-74.830769 68.923077-9.846154 7.876923c-114.215385 98.461538-210.707692 183.138462-275.692307 259.938461C147.692308 403.692308 118.153846 462.769231 118.153846 523.815385c0 47.261538 17.723077 90.584615 51.2 122.092307 33.476923 31.507692 78.769231 49.230769 128 49.23077 51.2 0 100.430769-19.692308 137.846154-55.138462l-84.676923-124.061538 124.061538-98.461539-96.492307-92.553846 236.307692-285.538462 3.938462-3.938461 49.230769 43.323077c185.107692 161.476923 315.076923 289.476923 315.076923 443.076923 3.938462 145.723077-112.246154 256-259.938462 256z"  horiz-adv-x="1024" />

    
    <glyph glyph-name="renzhengquanyi" unicode="&#58977;" d="M927.247 273.596 927.247 725.017l-7.62 0c-0.915 0-93.313 0.586-220.822 51.637C575.385 828.422 519.071 882.731 518.544 883.263l-5.39 5.387-5.389-5.387c-13.81-13.825-76.587-63.064-180.164-106.554-127.694-51.009-220.177-51.694-221.093-51.694l-7.62-0.015 0.015-451.022c-0.314-4.274-6.02-106.149 144.578-226.468 147.825-121.932 248.858-164.549 267.829-169.281l2.388-0.602 2.287 0.915c26.077 10.438 122.392 53.44 266.828 168.968C929.42 167.958 927.404 269.606 927.247 273.596zM912.008 273.337c0.028-0.972 1.3-98.886-138.79-213.988C634.615-51.505 541.418-94.565 512.711-106.33c-22.49 6.975-120.79 51.152-259.622 165.664-143.763 114.871-139.047 212.588-138.96 214.089L114.129 709.989c24.976 1.143 108.224 8.264 219.249 52.626C438.084 806.576 496.084 852.795 513.153 867.621c17.085-14.84 75.17-61.146 179.878-105.063 110.682-44.305 193.986-51.426 218.977-52.569L912.008 273.337 912.008 273.337zM465.556 197.479 285.069 351.185 340.577 416.493 456.339 317.95 676.107 571.088 741.002 514.793 465.556 197.479 465.556 197.479ZM513.036 197.479"  horiz-adv-x="1024" />

    
    <glyph glyph-name="ServiceRenzheng" unicode="&#58936;" d="M804.75460722 773.56267747l-112.30236331 9.03511723a36.37691733 36.37691733 0 0 0-21.14067228 8.97373071l-84.51039915 74.50788294c-40.70008605 35.88241863-101.58140416 36.41443101-142.9010341 1.24704655l-85.79836928-73.02211357a36.37691733 36.37691733 0 0 0-21.29413803-8.60314168l-112.44332373-7.07303652c-54.15158784-3.40578873-97.57653219-46.07932302-101.92812145-100.16384114l-9.03398059-112.3023633a36.37691733 36.37691733 0 0 0-8.97373071-21.14067229l-74.50788294-84.51153579c-35.88241863-40.70008605-36.41443101-101.58026752-1.24704655-142.9010341l73.02211357-85.79836928a36.37691733 36.37691733 0 0 0 8.60314168-21.29186474l7.07303652-112.44446038c3.40578873-54.15272448 46.07932302-97.57766997 100.16384114-101.92812145l112.3023633-9.03397945a36.37691733 36.37691733 0 0 0 21.14067229-8.9737307l84.51153579-74.50788409c40.70008605-35.88355527 101.58026752-36.41443101 142.9010341-1.24704655l85.79836928 73.02097807a36.37691733 36.37691733 0 0 0 21.29186474 8.60314055l112.44446038 7.07303652c54.15272448 3.40692537 97.57766997 46.08045966 101.92812145 100.16497777l9.03397945 112.30236331a36.37691733 36.37691733 0 0 0 8.9737307 21.14067228l74.50788409 84.51039915c35.88355527 40.70008605 36.41443101 101.58140416 1.24704655 142.9010341l-73.02097807 85.79836928a36.37691733 36.37691733 0 0 0-8.60314055 21.29413803l-7.07303652 112.44332373c-3.40692537 54.15158784-46.08045966 97.57653219-100.16497777 101.92812145z m27.55437795-106.4945607l7.07303652-112.44332488a109.13075086 109.13075086 0 0 1 25.80942279-63.88013966l73.02097693-85.79836928c11.72246187-13.77321074 11.54626105-34.06698269-0.41492367-47.63329877l-74.50788409-84.51153579a109.13075086 109.13075086 0 0 1-26.92005546-63.41974471l-9.03511609-112.30236331c-1.45053013-18.02930973-15.92513195-32.25268451-33.97604125-33.38832554l-112.44332373-7.07303652a109.13075086 109.13075086 0 0 1-63.88013966-25.80942279l-85.79836928-73.02097693c-13.77321074-11.72246187-34.06698269-11.54626105-47.63329877 0.41492367l-84.51039915 74.50788409a109.13075086 109.13075086 0 0 1-63.42088135 26.92005546l-112.30236331 9.03511609c-18.02817309 1.45053013-32.25268451 15.92513195-33.38718891 33.97604125l-7.07417315 112.44332373a109.13075086 109.13075086 0 0 1-25.80828615 63.88013966l-73.02211357 85.79836928c-11.72246187 13.77321074-11.54512441 34.06698269 0.41606031 47.63329877l74.50788408 84.51039915a109.13075086 109.13075086 0 0 1 26.91891769 63.42088135l9.03511723 112.30236331c1.45053013 18.02817309 15.92626859 32.25268451 33.9760401 33.38718891l112.44332488 7.07417315a109.13075086 109.13075086 0 0 1 63.88013966 25.80828615l85.79836928 73.02211357c13.77321074 11.72246187 34.06698269 11.54512441 47.63329877-0.41606031l84.51153579-74.50788408a109.13075086 109.13075086 0 0 1 63.41974471-26.91891769l112.30236331-9.03511723c18.02930973-1.45053013 32.25268451-15.92626859 33.38832554-33.9760401zM738.83053966 497.75744c14.17221917-13.95509475 14.48938041-36.66793245 0.81734315-51.01180587l-0.41947136-0.43197554-215.30587705-218.6639212c-13.68795136-13.90280249-35.87104995-14.50984221-50.2967717-1.47894955l-0.43538545 0.39787293L323.22653639 366.43676957c-14.692864 13.70272995-15.49429305 36.72136135-1.79156309 51.4130887 13.56517945 14.54508259 36.26096526 15.47724117 50.96974449 2.19852914l0.44334422-0.40696604 124.07484302-115.71838294 190.46612651 193.435392c13.95395811 14.17335581 36.66793245 14.48938041 51.01066923 0.81734429l0.43197553-0.41833472z"  horiz-adv-x="1024" />

    
    <glyph glyph-name="Executionlistsearch" unicode="&#58941;" d="M621.868 500.277c-87.43-0.226-166.988-33.747-226.704-88.545l0.577 32.013h-113.064c-31.222-0-56.532-25.31-56.532-56.532 0-31.222 25.31-56.532 56.532-56.532h47.035c-29.557-48.965-47.044-108.099-47.044-171.317 0-117.078 59.977-220.147 150.882-280.159l-207.404-0.778c-62.443 0-113.064 50.62-113.064 113.064v791.446c0 62.443 50.62 113.064 113.064 113.064h565.319c62.443 0 113.064-50.62 113.064-113.064v-434.787c-61.486 92.205-165.066 152.127-282.641 152.127-0.007 0-0.013-0-0.020-0zM734.931 669.872h-452.255c-31.222-0-56.532-25.31-56.532-56.532 0-31.222 25.31-56.532 56.532-56.532h452.255c31.222 0 56.532 25.31 56.532 56.532 0 31.222-25.31 56.532-56.532 56.532zM453.233 327.968c40.87 41.028 97.416 66.415 159.892 66.415 124.637 0 225.675-101.038 225.675-225.675 0-42.393-11.689-82.056-32.020-115.942l86.441-84.566c4.303-5.691 7.513-12.462 9.174-19.82-3.973 17.389-1.542 19.537 0.267 22.194-3.517-11.817-8.572-22.124-15.045-31.365 17.777 11.475 21.724 0.21 21.724-11.976 0-30.504-24.728-55.232-55.232-55.232-12.67 0-24.343 4.266-33.662 11.44-2.64-0.831-5.015-2.357-7.898-2.923 1.979 1.357 3.505 3.109 5.653 4.523-6.505 3.835-11.93 8.801-16.166 14.682l-74.229 74.073c-33.128-20.18-73.196-32.127-116.053-32.127-124.637 0-225.675 101.038-225.675 225.675 0 62.841 25.685 119.683 67.129 160.6zM533.169 88.103c20.462-20.468 48.733-33.128 79.96-33.128 62.443 0 113.064 50.62 113.064 113.064 0 62.443-50.62 113.064-113.064 113.064-31.228 0-59.499-12.66-79.96-33.127-20.454-20.46-33.104-48.721-33.104-79.936 0-31.216 12.65-59.477 33.104-79.936z"  horiz-adv-x="1024" />

    
    <glyph glyph-name="tijiandengji" unicode="&#58968;" d="M423.056 770.736a38.88 38.88 0 0 0-77.728 0V840.56a38.88 38.88 0 1 0 77.728 0v-69.824z m238.528 0.016a38.88 38.88 0 1 0-77.744 0V840.56a38.88 38.88 0 1 0 77.744 0v-69.808zM799.712-111.44H224.288C103.936-111.44 6.032-13.664 6.032 106.432V619.376C6.032 739.552 103.936 837.28 224.288 837.28h575.44c120.336 0 218.256-97.728 218.256-217.904v-512.912c-0.016-120.128-97.888-217.904-218.272-217.904zM224.288 774.032c-85.456 0-155.008-69.376-155.008-154.656v-512.912c0-85.28 69.568-154.64 155.008-154.64h575.44c85.472 0 155.008 69.392 155.008 154.64V619.376c0 85.296-69.504 154.656-155.008 154.656H224.288zM234.208 42.656c9.472 0 15.776 6.304 15.776 15.76 0 141.984 115.168 257.152 257.168 257.152 44.16 0 86.752-11.024 124.624-31.536 7.904-4.752 17.376-1.584 22.112 6.304 4.72 7.888 1.568 17.36-6.32 22.096-18.944 11.024-39.456 18.944-59.952 25.216 58.352 30 99.392 91.52 99.392 162.512 0 100.976-82.048 183.008-183.008 183.008-100.976 0-183.008-82.032-183.008-183.008 0-72.576 41.008-134.112 102.544-164.08-118.32-36.288-205.088-146.736-205.088-276.096-0.016-11.024 6.288-17.328 15.76-17.328z m118.336 455.936c0 83.632 67.84 151.456 151.456 151.456s151.44-67.84 151.44-151.456-67.824-151.44-151.44-151.44-151.456 67.824-151.456 151.44z m347.088-444.912c9.456 0 15.76 6.32 15.76 15.792v93.056h93.072c9.488 0 15.792 6.336 15.792 15.776s-6.32 15.776-15.792 15.776h-93.072v93.072c0 9.488-6.32 15.76-15.76 15.76-9.472 0-15.776-6.288-15.776-15.76v-93.072h-93.072c-9.488 0-15.76-6.336-15.76-15.776s6.288-15.776 15.76-15.776h93.072v-93.056c-0.016-9.472 6.304-15.792 15.776-15.792zM234.208 26.656c-18.704 0-31.776 13.712-31.776 33.344 0 121.056 74.288 231.552 184.304 279.52-51.136 36.896-81.744 95.84-81.744 160.656 0 109.728 89.28 199.008 199.008 199.008 109.728 0 199.008-89.28 199.008-199.008 0-63.152-29.568-121.296-78.944-158.48 11.504-4.72 21.952-9.824 31.552-15.424 9.04-5.44 14.624-14.016 16.08-23.2 5.248 9.712 15.424 15.888 27.936 15.888 18.4 0 31.76-13.36 31.76-31.76v-77.072h77.072c18.416 0 31.792-13.36 31.792-31.776s-13.376-31.776-31.792-31.776h-77.072v-77.056c0-18.416-13.36-31.792-31.76-31.792-18.416 0-31.776 13.376-31.776 31.792v77.056h-77.072c-18.4 0-31.76 13.36-31.76 31.776s13.36 31.776 31.76 31.776h77.072v72.416l-0.24-0.4c-9.2-15.264-29.248-20.736-44.08-11.792a246.048 246.048 0 0 1-116.384 29.248c-132.976 0-241.168-108.192-241.168-241.152 0-18.432-13.36-31.792-31.776-31.792z m22.624 140.352a268.24 268.24 0 0 1-22.4-107.008c0-0.56 0.032-1.008 0.08-1.328 0.304 0.016 0.432 0.064 0.432 0.064a268.624 268.624 0 0 0 21.888 108.272z m443.008-48.816v-48.496c0.336 0.016 0.496 0.064 0.496 0.064l-0.496 48.432zM455.504 338.32l11.52-5.616-38.816-11.904a273.968 273.968 0 0 1-126.224-82.336 272.256 272.256 0 0 0 193.904 92.88 165.968 165.968 0 0 0-40.384 6.976z m58.976-6.832c43.584-1.152 86.624-12.64 124.912-33.376-15.504 9.6-34 17.36-56.464 24.256l-37.648 11.536 10.848 5.584c-13.232-4.384-27.184-7.12-41.648-8z m-10.48 302.56c-74.688 0-135.456-60.768-135.456-135.456 0-74.672 60.768-135.44 135.456-135.44 74.672 0 135.44 60.752 135.44 135.44 0 74.704-60.768 135.456-135.44 135.456z m0 32c75.968 0 140.272-50.848 160.672-120.304-19.872 70.016-84.384 121.44-160.672 121.44-76.016 0-140.336-51.056-160.464-120.672 20.64 69.072 84.768 119.536 160.464 119.536z"  horiz-adv-x="1024" />

    
    <glyph glyph-name="plan" unicode="&#59111;" d="M814.99592858 762.74491106h151.49796499a25.24966037 25.24966037 0 0 0 25.24966036-25.24966036v-807.98914427a25.24966037 25.24966037 0 0 0-25.24966036-25.24966036H57.50610643a25.24966037 25.24966037 0 0 0-25.24966036 25.24966036V737.4952507a25.24966037 25.24966037 0 0 0 25.24966036 25.24966036h151.49796499v24.74466756a75.74898249 75.74898249 0 1 0 151.4979636 0v-24.74466756h302.99592996v24.74466756a75.74898249 75.74898249 0 1 0 151.4979636 0v-24.74466756z m0-50.49932073v-24.74466756a75.74898249 75.74898249 0 1 0-151.4979636 0V712.24559033h-302.99592996v-24.74466756a75.74898249 75.74898249 0 1 0-151.4979636 0V712.24559033H82.75576681v-757.48982352h858.48846638v757.48982352H814.99592858z m-656.49117928-252.49660784a25.24966037 25.24966037 0 1 0 0 50.49932074h706.9905014a25.24966037 25.24966037 0 1 0 0-50.49932074H158.5047493z m487.11645547-108.3715444a25.24966037 25.24966037 0 0 0 35.75351904-35.75351904l-201.99728572-201.9972871a25.24966037 25.24966037 0 0 0-35.75351904 0l-100.99864286 100.99864424a25.24966037 25.24966037 0 0 0 35.75351904 35.75351904L461.50067788 167.20641248000004l184.12052689 184.17102561zM310.00271428 687.45042268V787.54007873a25.24966037 25.24966037 0 1 1-50.49932212 0v-100.08965605a25.24966037 25.24966037 0 1 1 50.49932212 0z m454.49389356 0V787.54007873a25.24966037 25.24966037 0 1 1-50.49932212 0v-100.08965605a25.24966037 25.24966037 0 1 1 50.49932212 0z"  horiz-adv-x="1024" />

    
    <glyph glyph-name="yaopin-zhihang" unicode="&#58953;" d="M512-128a512 512 0 1 0 512 512 512.412903 512.412903 0 0 0-512-512z m0 941.419355a429.419355 429.419355 0 1 1 429.419355-429.419355A430.245161 430.245161 0 0 1 512 813.419355zM343.122581 94.967742v578.064516l500.025806-289.032258z m82.580645 435.2v-292.335484l252.696774 146.167742z"  horiz-adv-x="1024" />

    
    <glyph glyph-name="jihua" unicode="&#59059;" d="M821.646222 455.054222a42.666667 42.666667 0 0 0 85.333334 0v-422.741333a148.878222 148.878222 0 0 0-148.821334-148.878222h-509.724444A148.878222 148.878222 0 0 0 99.555556 32.312889V662.357333A148.878222 148.878222 0 0 0 248.433778 811.235556h234.154666a42.666667 42.666667 0 0 0 0-85.333334H248.433778C213.333333 725.902222 184.888889 697.457778 184.888889 662.357333v-630.044444c0-35.100444 28.444444-63.544889 63.544889-63.544889h509.724444c35.043556 0 63.488 28.444444 63.488 63.544889V455.054222zM262.599111 347.363556m28.444445 0l424.504888 0q28.444444 0 28.444445-28.444445l0-28.444444q0-28.444444-28.444445-28.444445l-424.504888 0q-28.444444 0-28.444445 28.444445l0 28.444444q0 28.444444 28.444445 28.444445ZM262.599111 166.798222m28.444445 0l424.504888 0q28.444444 0 28.444445-28.444444l0-28.444445q0-28.444444-28.444445-28.444444l-424.504888 0q-28.444444 0-28.444445 28.444444l0 28.444445q0 28.444444 28.444445 28.444444ZM570.140444 496.64l242.346667 242.346667a17.521778 17.521778 0 0 1-24.746667 24.803555L544.483556 520.533333l-0.568889-23.210666 26.225777-0.625778z m302.705778 327.509333c40.163556-40.163556 40.163556-105.244444 0-145.464889L604.615111 410.453333 456.248889 414.151111l3.754667 142.677333 267.377777 267.320889a102.855111 102.855111 0 0 0 145.408 0z"  horiz-adv-x="1024" />

    
    <glyph glyph-name="chakan" unicode="&#58935;" d="M660.59377778 476.08035555c0-32.75662222-25.7024-58.97102222-57.98115556-58.97102222-32.24462222 0-58.45902222 26.2144-58.45902222 58.97102222 0 32.24462222 26.2144 58.45902222 58.45902222 58.45902223 4.03911111 0 7.56622222-1.51324445 11.61671111-2.02524445-29.22951111 20.66204445-65.03537778 33.28-103.3216 33.28-99.81724445 0-180.45155555-81.65831111-180.45155555-182.4768 0-100.27235555 80.63431111-181.94204445 180.45155555-181.94204444 99.79448889 0 180.4288 81.65831111 180.4288 181.94204444 0 38.82097778-12.60657778 75.11608889-33.28 104.3456 1.024-4.03911111 2.53724445-7.56622222 2.53724445-11.58257778z m350.77688889-75.11608888c-84.16142222 154.23715555-282.74915555 309.9648-500.46293334 309.9648-217.74791111 0-416.33564445-155.72764445-499.98506666-309.9648l-10.08071112-17.64693334 10.08071112-17.62417778c83.64942222-153.72515555 282.23715555-309.9648 499.98506666-309.9648 217.71377778 0 416.30151111 156.23964445 500.46293334 309.9648l9.59146666 17.62417778-9.59146666 17.64693334zM510.90773333 128.29582222c-179.42755555 0-349.29777778 128.53475555-426.91697778 255.03288889 77.6192 127.03288889 247.48942222 255.03288889 426.91697778 255.03288889 179.4048 0 349.27502222-128 426.89422222-255.03288889-77.6192-126.49813333-247.48942222-255.03288889-426.89422222-255.03288889z"  horiz-adv-x="1024" />

    
    <glyph glyph-name="weizhi" unicode="&#58999;" d="M387.2 291.2c-0.8-24.8 8.8-48.8 26.4-66.4 17.6-17.6 41.6-27.2 67.2-26.4h62.4c24.8-0.8 49.6 8.8 67.2 26.4 17.6 17.6 27.2 41.6 26.4 66.4 0 93.6 121.6 80 124.8 248 1.6 104-14.4 210.4-50.4 257.6C654.4 872 512 880 512 880S368.8 872 312 796.8c-35.2-46.4-51.2-153.6-50.4-257.6 3.2-168 124.8-154.4 125.6-248zM544 308.8H454.4V396H544v-87.2zM404.8 737.6c23.2 15.2 52 23.2 86.4 23.2 44.8 0 82.4-11.2 112-32.8 29.6-21.6 44.8-54.4 44.8-96.8 0-26.4-6.4-48-19.2-66.4-7.2-11.2-21.6-24.8-43.2-41.6l-20.8-16.8c-11.2-8.8-19.2-20-22.4-32-2.4-8-4-20-4-36H456c0.8 34.4 4 57.6 9.6 71.2 5.6 12.8 18.4 28 40 45.6l21.6 17.6c7.2 5.6 12.8 11.2 17.6 17.6 8 11.2 12 23.2 12 36.8 0 15.2-4.8 29.6-13.6 41.6-8.8 12.8-24.8 19.2-48 19.2s-39.2-8-48.8-23.2C436.8 648 432 632 432 615.2H345.6c2.4 57.6 22.4 98.4 59.2 122.4z m263.2-508L574.4 168H449.6l-93.6 61.6c-247.2-68-249.6-107.2-249.6-248 0-107.2 405.6-92.8 405.6-92.8s402.4-4 405.6 92.8c4 140.8-2.4 180-249.6 248z"  horiz-adv-x="1024" />

    
    <glyph glyph-name="jingli" unicode="&#58932;" d="M411.5456 896l-37.244343-44.968229 49.005714-82.651428-85.518628-529.744457 300.573257 178.878171-53.379657 350.72 47.294171 82.651429L596.728686 896H411.560229z m-78.145829-684.661029l-13.312-81.627428 332.010058 197.705143-10.3424 67.466971-308.370286-183.544686z m-17.700571-109.070628L307.2 49.2544 514.618514-128l178.249143 186.894629-37.376 245.745371-339.792457-202.371657z"  horiz-adv-x="1024" />

    
    <glyph glyph-name="erdaishenfenzheng" unicode="&#58931;" d="M489.244 372.622c75.401 0 136.533 61.133 136.533 136.533s-61.133 136.533-136.533 136.533-136.533-61.133-136.533-136.533 61.133-136.533 136.533-136.533zM568.889 361.244c-25.429-25.065-79.644-79.644-79.644-79.644s-56.206 56.070-79.644 79.644c-81.863-30.367-148.799-94.686-182.044-193.422-2.367-7.009 0-21.458 0-34.133h523.378c0 6.349 2.412 26.977 0 34.133-33.257 98.588-100.181 163.169-182.044 193.422zM1200.356 418.133h-261.689c-0-0-0-0-0-0-9.426 0-17.067-7.641-17.067-17.067l0-11.378c0-9.426 7.641-17.067 17.067-17.067 0 0 0 0 0 0h261.689c9.426 0 17.067 7.641 17.067 17.067 0 0 0 0 0 0v11.378c-0 9.426-7.641 17.067-17.067 17.067zM1285.689 839.111h-1137.778c-62.839 0-113.778-50.938-113.778-113.778v-682.667c0-62.839 50.938-113.778 113.778-113.778h1137.778c62.839 0 113.778 50.938 113.778 113.778v682.667c0 62.839-50.938 113.778-113.778 113.778zM1353.956 54.044c0-43.986-35.658-79.644-79.644-79.644-0 0-0 0-0 0h-1115.022c-0 0-0 0-0 0-43.986 0-79.644 35.658-79.644 79.644 0 0 0 0 0 0l0 659.911c-0 43.986 35.658 79.644 79.644 79.644 0 0 0 0 0 0h1115.022c0 0 0 0 0 0 43.986 0 79.644-35.658 79.644-79.644v-659.911zM1200.356 554.667h-364.089c0 0 0 0 0 0-9.426 0-17.067-7.641-17.067-17.067v-11.378c0-9.426 7.641-17.067 17.067-17.067h364.089c9.426 0 17.067 7.641 17.067 17.067l-0 11.378c0 9.426-7.641 17.067-17.067 17.067z"  horiz-adv-x="1433" />

    
    <glyph glyph-name="duka" unicode="&#59028;" d="M951.30860562 750.0905047H72.69139438c-40.26995552 0-73.21810095-32.94814542-73.21810095-73.21810095v-585.7448075c0-40.26995552 32.94814542-73.21810095 73.21810095-73.21810095h878.61721124c40.26995552 0 73.21810095 32.94814542 73.21810095 73.21810095V676.87240375c0 40.26995552-32.94814542 73.21810095-73.21810095 73.21810095zM336.27655775 186.31112747999998c-7.3218101-3.66090506-14.64362017-3.66090506-21.96543027 0-3.66090506 0-3.66090506 3.66090506-3.66090505 3.66090504-54.91357571 51.25267068-87.86172112 120.80986655-87.86172112 201.34977758 0 76.87900598 32.94814542 146.43620185 84.20081606 197.68887253l3.66090506 3.66090505c7.3218101 3.66090506 14.64362017 3.66090506 21.96543027 0 7.3218101-3.66090506 10.98271516-10.98271516 10.98271514-21.96543029 0-7.3218101-3.66090506-14.64362017-7.32181009-18.30452523-43.93086055-40.26995552-69.5571959-98.84443627-69.55719588-164.7407271 0-65.89629086 29.28724036-124.47077158 73.21810092-164.74072713 3.66090506-3.66090506 7.3218101-10.98271516 7.3218101-18.30452523 0-3.66090506-3.66090506-14.64362017-10.98271514-18.30452522z m51.25267067 69.55719588c-7.3218101 0-10.98271516 3.66090506-14.64362019 7.32181009-32.94814542 32.94814542-54.91357571 80.53991103-54.91357571 131.79258171 0 47.59176558 18.30452524 91.52262617 51.25267065 124.47077157 3.66090506 3.66090506 10.98271516 7.3218101 14.64362019 7.3218101 14.64362017 0 21.96543027-10.98271516 21.96543027-21.96543028 0-7.3218101-3.66090506-14.64362017-7.32181008-18.30452524-25.62633533-25.62633533-40.26995552-58.57448076-40.26995552-95.18353121s14.64362017-73.21810095 40.26995552-98.84443627c3.66090506-3.66090506 7.3218101-10.98271516 7.32181008-18.30452523 3.66090506-10.98271516-3.66090506-18.30452524-18.30452521-18.30452524z m109.82715141 91.52262618c-25.62633533 0-43.93086055 18.30452524-43.93086059 43.93086056s18.30452524 43.93086055 43.93086059 43.93086058 43.93086055-18.30452524 43.93086053-43.93086058-21.96543027-43.93086055-43.93086053-43.93086056z m117.14896148-91.52262618c-3.66090506-3.66090506-7.3218101-7.3218101-14.64362019-7.32181009-10.98271516 0-21.96543027 10.98271516-21.96543026 21.96543028 0 7.3218101 3.66090506 10.98271516 7.32181009 14.64362018 25.62633533 25.62633533 43.93086055 62.2353858 43.93086054 102.50534133s-18.30452524 76.87900598-47.59176559 102.50534131c-3.66090506 3.66090506-7.3218101 10.98271516-7.3218101 18.30452521s3.66090506 14.64362017 10.98271515 21.96543027c7.3218101 3.66090506 14.64362017 3.66090506 21.96543027 0 3.66090506 0 3.66090506-3.66090506 7.32181009-3.66090502l3.66090506-3.66090506c36.60905046-32.94814542 58.57448076-80.53991103 58.57448074-131.79258167s-21.96543027-98.84443627-54.91357571-131.79258168c-3.66090506 0-3.66090506-3.66090506-7.32181009-3.66090506z m69.5571959-62.23538579c0-3.66090506 0-3.66090506 0 0-7.3218101-7.3218101-10.98271516-10.98271516-18.30452524-10.98271514-14.64362017 0-21.96543027 10.98271516-21.9654303 21.96543027 0 7.3218101 3.66090506 10.98271516 7.3218101 18.30452523l3.66090506 3.66090505c43.93086055 40.26995552 73.21810095 102.50534131 73.21810094 168.40163218 0 65.89629086-29.28724036 128.13167664-73.21810094 168.40163214-3.66090506 3.66090506-7.3218101 10.98271516-7.3218101 14.64362018 0 14.64362017 10.98271516 21.96543027 21.96543029 21.96543029 7.3218101 0 10.98271516-3.66090506 18.30452523-7.32181009 54.91357571-51.25267068 87.86172112-120.80986655 87.86172114-201.34977758-3.66090506-76.87900598-36.60905046-150.09710694-91.52262618-197.68887253z"  horiz-adv-x="1024" />

    
    <glyph glyph-name="nv" unicode="&#58929;" d="M845.59210133 104.06036587000006c-59.97353493 26.5253088-176.45525227 56.51207573-176.45525226 56.51207573s1.15338667 35.75240533 0.01037867 71.88624533c195.29347628-3.07483413 207.59281173 19.99290773 219.888256 26.142576-56.8961056 90.72706453-64.58189333 270.63988266-66.12449921 289.0940768-15.37936001 135.32123948-52.2760704 192.2108576-64.58319145 212.20506347C573.8027232 992.09837439 400.04086933 849.0848608 400.04086933 849.0848608c-120.31942188 4.61225067-151.8552832-107.257216-156.46753385-118.7884928-20.75837333-59.9722368-34.59772053-171.8404064-38.05917975-185.6797536C177.8341632 327.79670507000003 119.01790827 259.75335253000003 114.40695467 250.526256c72.6556032-26.52660587 237.57698453-17.29950932 237.57698453-17.29950933s1.1520896-46.13159147 1.1520896-73.80898987c-88.8017248-12.68596053-216.81731413-74.96367467-229.50327467-83.03997867-92.26577813-59.96964267-74.96497173-201.8245792-74.9649728-201.8245792H973.60639253c25.37451627 174.14847788-117.63640213 224.89232107-128.0142912 229.50716694z m-288.32342186 109.56009813c-4.61354879-1.15338667-45.55554667-21.9143552-92.263184 0-4.61354879 1.15338667-92.263184 36.32715306-138.39607253 174.72452267-4.03620587 2.30547733-27.67869547 7.49636693-46.13159253 27.67739839-2.3067744 2.88411627-69.772784 67.46730667 17.87555413 102.64366827 5.76693546 2.88411627 71.5035136 31.71619947 102.64237013 147.04453014 4.03880107 4.61354879 3.67812373 6.53369812 12.12029546 9.60853119 0 0 37.6712576-108.40800853 143.00962134-119.94058133 1.53871467 11.53127573-13.07388267-0.771952-4.61484587 73.80898987 4.61484588-3.07223893 58.430928-93.80319573 124.55413013-101.48898347 10.7684064-2.30547733 39.978032-17.68224214 66.1089312-18.45159893 6.91643092-0.771952 51.51838934-23.0664448 7.69357227-83.0386816-2.30807147-4.41893867-16.7221664-25.17860908-55.35868907-37.2859296-2.30547733-4.03880107-40.9407008-135.51195627-137.24009066-175.3018656z"  horiz-adv-x="1024" />

    
    <glyph glyph-name="nan" unicode="&#58930;" d="M340.25802998 340.76C397.52402999 262.11199999999997 485.27203001 256 510.80203001 256h2.39599998c25.52999999 0 113.27600001 6.112 170.54200002 84.758 22.54800001 30.966 45.49800001 87.01200001 55.474 112.858 33.934 40.52399999 46.802 79.014 38.252 114.54000001-4.30800001 17.896-13.962 33.558-27.256 45.01999999 5.278 43.008 4.998 91.70000001-10.594 134.504-22.128 60.74800002-62.122 103.65-118.864 127.51C576.09403001 893.97199999 533.75803002 896 517.62803001 896h-2.398c-1.26800001 0-2.35-0.01199999-3.228-0.03-0.88 0.018-1.96400001 0.03-3.232 0.03h-2.396c-16.128 0-58.464-2.02800001-103.12600002-20.81-56.744-23.862-96.734-66.762-118.86400001-127.512-15.592-42.806-15.87-91.494-10.59399999-134.502-13.29199999-11.46200001-22.94800001-27.12400001-27.256-45.022-8.55-35.52600001 4.318-74.014 38.254-114.538 9.976-25.846 32.92-81.89200001 55.47000002-112.856z m-19.18999997 227.216c18.55599999 6.95 31.01199999-20.712 35.54599998-33.066-5.16399999 15.928-19.194 63.18000002-21.55600001 112.96 16.70800001 23.35599999 50.05 62.498 89.61200001 68.87799999 0 0 85.52-102.26799999 261.342-100.27199998-5.048-37.208-14.568-69.05600001-18.62599998-81.568 4.53799999 12.354 16.99 40.016 35.54599998 33.06599999 11.208-4.198 30.14400001-26.57199999-19.504-80.944 0 0-28.334-76.89200001-51.424-108.6C597.97203001 331.696 545.11802999 320 513.20003001 320c-0.302 0.018-0.718 0.042-1.2 0.078-0.48-0.03600001-0.896-0.06000001-1.198-0.078-31.92 0-84.778 11.696-118.806 58.43200001-23.09 31.70800001-51.424 108.6-51.42400002 108.59999999-49.648 54.37200001-30.71 76.746-19.504 80.944zM577.05003001 191.57999999000003L547.36203001 224H476.63403001l-29.688-32.42000001s16.96600001-36.18000001 44.53399998-50.24399999l-44.53399998-112.562S479.50403001-17.648000000000025 512.00002999-29.610000000000014c32.496 11.96199999 65.05199999 58.384 65.05200002 58.384L532.52002999 141.336c27.562 14.064 44.53 50.24399999 44.53000002 50.24399999z m398.05399998-85.59399999C921.15803001 175.04999999999995 680.95803002 224 680.95803002 224 712.77002998 41.35600001 512.00002999-69.71000000000004 512.00002999-69.71000000000004S311.23002999 41.35600001 343.04002999 224c0 0-240.202-48.95-294.146-118.014C-8.26996999 32.79599999000004-1.54196999-39.37199998999995 2.69803001-69.51999999999998c4.242-30.146 11.65199999-48.432 60.424-58.48h897.75199997c48.774 10.04800001 56.184 28.334 60.42600001 58.48 4.242 30.14800001 10.97 102.31599999-46.196 175.506z"  horiz-adv-x="1025" />

    
    <glyph glyph-name="shitu" unicode="&#58928;" d="M1024 180.90666667000005C1024 126.63466667 909.19822222 10.808888890000048 745.58577778 10.808888890000048c-159.40266667 0-278.41422222 113.89155555-278.41422223 169.984 0 56.20622222 119.46666667 169.87022222 278.41422223 169.87022222 164.864 0 278.41422222-113.664 278.41422222-169.75644444z m-278.18666667 138.80888888c-74.06933333 0-134.144-62.23644445-134.144-138.92266666 0-76.68622222 60.07466667-138.92266667 134.144-138.92266667 74.18311111 0 134.144 62.23644445 134.144 138.92266667 0.11377778 76.68622222-59.96088889 138.92266667-134.144 138.92266666z m-0.22755555-50.28977777c-47.21777778 0-85.44711111-39.59466667-85.44711111-88.40533333 0-48.81066667 38.22933333-88.40533333 85.44711111-88.40533334s85.44711111 39.59466667 85.44711111 88.40533334c0 48.81066667-38.22933333 88.40533333-85.44711111 88.40533333z m0 0M112.64 546.7022222200001v-73.04533333h211.74044445V546.7022222200001h-211.62666667zM112.64 412.78577778v-73.04533333h211.74044445v73.04533333h-211.62666667zM112.64 278.86933333v-73.04533333h211.74044445v73.04533333h-211.62666667zM112.64 144.95288889000005v-73.04533334h211.74044445v73.04533334h-211.62666667zM61.55377778 32.085333330000026V586.8657777799999h830.91911111v-199.56622223c23.77955555-7.28177778 46.19377778-15.81511111 66.90133333-25.94133333V726.69866667c0 37.66044445-30.83377778 68.49422222-68.49422222 68.49422222H68.49422222c-37.66044445 0-68.49422222-30.83377778-68.49422222-68.49422222v-685.28355556c0-37.66044445 30.83377778-68.49422222 68.49422222-68.49422222h579.47022223c-52.11022222 13.19822222-98.41777778 34.13333333-137.216 59.27822222H61.55377778zM584.24888889 546.7022222200001H372.50844445v-73.04533333h211.74044444zM584.24888889 412.78577778H372.50844445v-73.04533333h148.13866666c19.56977778 11.94666667 40.73244445 22.64177778 63.60177778 32.1991111v40.84622223zM372.50844445 278.86933333v-73.04533333h21.39022222c7.168 22.18666667 23.77955555 47.44533333 48.69688888 73.04533333h-70.0871111zM584.24888889 207.53066666999996v14.10844444c-1.024-5.00622222-1.25155555-10.35377778-1.82044444-15.58755556 0.56888889 0.45511111 1.25155555 0.91022222 1.82044444 1.47911112zM372.50844445 144.95288889000005v-73.04533334h85.78844444c-27.30666667 24.80355555-47.104 49.94844445-58.368 73.04533334h-27.42044444zM844.11733333 546.7022222200001H632.37688889v-73.04533333h211.74044444zM844.11733333 399.58755555v13.19822223H632.37688889v-23.77955556c39.02577778 11.37777778 80.66844445 19.22844445 125.38311111 19.22844445 30.26488889 0 58.82311111-3.41333333 86.35733333-8.64711112zM584.24888889 207.53066666999996c-0.68266667-0.45511111-1.25155555-1.024-1.82044444-1.47911112v-0.11377777h1.82044444v1.59288889zM582.20088889 205.82399999999996h0.22755556v0.11377778c-0.11377778 0-0.11377778-0.11377778-0.22755556-0.11377778z"  horiz-adv-x="1024" />

    
    <glyph glyph-name="quanyi" unicode="&#58997;" d="M827.164444 284.634074c35.915852 0 82.583704-11.245037 139.984593-33.735111V623.881481c0 19.64563-9.102222 51.218963-24.538074 66.996149l-169.358222 176.924444C757.797926 883.560296 730.908444 895.374222 707.792593 895.374222H133.935407c-42.344296 0-76.98963-35.422815-76.989629-78.810074v-839.224889c0-43.368296 34.645333-87.04 76.989629-87.04h519.964445c-34.664296 39.405037-57.780148 102.836148-57.780148 161.886815-0.113778 126.160593 103.898074 232.448 231.025777 232.448zM695.808 816.507259c0 23.627852 12.041481 27.591111 28.122074 11.813926l180.603259-177.246815c16.099556-15.796148 12.041481-27.610074-12.041481-27.610074h-116.337778c-44.107852 0-80.213333 35.441778-80.213333 78.810074V816.507259h-0.132741zM190.27437 721.92h357.148445c16.080593 0 28.122074-11.813926 28.122074-27.591111 0-15.777185-12.041481-27.591111-28.122074-27.591111H190.27437c-16.099556 0-28.141037 11.813926-28.141037 27.591111 0.132741 15.777185 12.155259 27.591111 28.141037 27.591111z m0-157.620148H844.231111c16.099556 0 28.141037-11.794963 28.141037-27.591111 0-15.777185-12.041481-27.591111-28.141037-27.591111H190.27437c-16.099556 0-28.141037 11.813926-28.141037 27.591111 0.132741 15.796148 12.155259 27.591111 28.141037 27.591111z m-28.008296-185.078519c0 15.777185 12.022519 27.591111 28.122074 27.591111h477.430519c16.080593 0 28.122074-11.813926 28.122074-27.591111 0-15.796148-12.041481-27.591111-28.122074-27.591111H190.27437c-15.985778 0-28.008296 11.794963-28.008296 27.591111z m678.039704-146.621629c-100.977778 0-183.694222-81.161481-183.694222-180.299852 0-99.157333 82.602667-180.299852 183.694222-180.299852C941.264593-128 1024-51.294815 1024 52.299852c0 99.157333-82.735407 180.299852-183.694222 180.299852z m116.811852-167.386074l-36.105482-36.655408 6.997333-52.584296c0.910222-6.921481-4.664889-14.317037-10.619259-17.654519-7.111111-3.963259-14.487704-3.223704-21.598815 0l-46.573037 20.726519-46.554074-20.726519c-7.111111-3.223704-14.620444-3.963259-21.617777 0-5.935407 3.337481-11.510519 10.733037-10.600297 17.635556l6.997334 52.603259-36.105482 36.655408c-10.202074 10.372741-7.111111 31.099259 9.443556 34.190222 17.995852 3.337481 35.972741 6.542222 53.949629 9.879704 8.267852 14.317037 16.687407 28.634074 24.95526 43.083851a10.012444 10.012444 0 0 0 1.554962 2.465186 18.640593 18.640593 0 0 0 7.111112 6.542222c3.242667 1.972148 6.997333 2.844444 10.752 2.844444h0.246518c3.621926 0 6.997333-0.986074 9.974519-2.465185 0.246519-0.132741 0.379259-0.132741 0.64474-0.246518a18.014815 18.014815 0 0 0 7.888593-7.774815c8.533333-14.829037 17.199407-29.639111 25.732741-44.449185 17.976889-3.337481 35.972741-6.542222 53.949629-9.860741 16.687407-2.977185 19.911111-23.703704 9.576297-34.209185z"  horiz-adv-x="1024" />

    
    <glyph glyph-name="putonghuiyuan" unicode="&#58918;" d="M469.942841 226.742837 385.828552 215.771408 447.999983 153.599977 433.371411 69.485688 510.171414 109.714261 586.971417 69.485688 572.342845 153.599977 634.514275 215.771408 546.742844 226.742837 510.171414 303.54284ZM839.314283 735.085712c0 87.771432-73.14286 160.914291-160.914291 160.914291L341.942836 896.000004c-87.771432 0-160.914291-73.14286-160.914291-160.914291l0-157.257148 190.171435-102.400004c-106.057147-51.200002-182.857149-160.914291-182.857149-285.257153 0-175.542863 142.628577-318.17144 321.828583-318.17144s321.828583 142.628577 321.828583 318.17144c0 124.342862-73.14286 234.057151-179.200006 285.257153l190.171435 106.057147L842.971426 735.085712zM736.914279 186.514264c0-124.342862-102.400004-223.085722-226.742865-223.085722S283.428549 62.171402 283.428549 186.514264c0 124.342862 102.400004 223.085722 226.742865 223.085722S736.914279 310.857126 736.914279 186.514264zM744.228565 632.685709 521.142843 508.342847C517.4857 504.685704 506.514271 504.685704 502.857128 508.342847l-226.742865 124.342862 0 102.400004c0 36.57143 29.257144 65.828574 65.828574 65.828574l332.800012 0c36.57143 0 65.828574-29.257144 65.828574-65.828574L740.571422 632.685709z"  horiz-adv-x="1024" />

    
    <glyph glyph-name="putonghuiyuan1" unicode="&#59031;" d="M514.34666667 648.2133333300001c-200 0-362.13333333-165.97333333-362.13333334-370.77333333 0-204.8 162.13333333-370.77333333 362.13333334-370.77333333s362.13333333 165.97333333 362.13333333 370.77333333c0 204.69333333-162.13333333 370.77333333-362.13333333 370.77333333z m186.24-337.70666666l-71.36-71.25333334 16.85333333-100.58666666c5.65333333-33.81333333-13.22666667-48.53333333-43.41333333-32.32l-88.21333334 47.46666666-88.21333333-47.46666666c-29.65333333-16-49.17333333-2.13333333-43.41333333 32.32l16.85333333 100.58666666-71.36 71.25333334c-24 23.89333333-17.17333333 47.25333333 16.53333333 52.26666666l98.66666667 14.72 44.16 91.52c14.82666667 30.72 38.50666667 31.36 53.65333333 0l44.16-91.52 98.66666667-14.72c32.96-5.01333333 40.85333333-27.94666667 16.42666667-52.26666666m152.32 551.46666666H629.01333333c-12.05333333 0-21.76-8.64-24.64-20.16l-69.01333333-139.30666666s147.84-9.06666667 235.09333333-95.14666667L873.49333333 820.26666667c3.09333333 4.37333333 5.22666667 9.38666667 5.22666667 15.14666666 0 14.61333333-11.52 26.56-25.81333333 26.56M489.70666667 702.4L420.69333333 841.81333333c-2.88 11.41333333-12.58666667 20.16-24.64 20.16H172.16c-14.29333333 0-25.92-11.84-25.92-26.45333333 0-5.76 2.13333333-10.77333333 5.22666667-15.14666667l103.04-213.01333333c87.46666667 85.97333333 235.2 95.04 235.2 95.04"  horiz-adv-x="1024" />

    
    <glyph glyph-name="huangjin" unicode="&#58919;" d="M1025.292929 612.719192L799.676768 837.30101c-8.533333 8.533333-19.006061 12.670707-30.771717 12.670707H269.058586c-11.636364 0-22.238384-4.266667-30.771717-12.670707L12.670707 612.719192c-8.533333-8.533333-12.670707-19.006061-12.670707-30.771717v-88.953536c0-10.60202 4.266667-21.20404 10.60202-28.573737l476.573738-532.816162c16.937374-19.006061 46.545455-19.006061 63.612121 0l476.573737 532.816162c7.369697 7.369697 10.60202 17.971717 10.60202 28.573737v88.953536c0 11.636364-4.266667 22.238384-12.670707 30.771717z m-73.050505-132.39596L518.981818-4.783838l-433.131313 485.10707V583.111111L295.563636 791.660606h448l209.713132-208.678788v-102.787879h-1.034344z m0 0M295.563636 792.694949L85.850505 584.145455v-102.787879l433.260606-486.141414 433.260606 485.10707V583.111111L742.529293 792.694949H295.563636z m223.418182-635.474747l-321.939394 430.028283h190.707071l-14.868687-40.210101 146.10101-199.111111 146.230303 198.076767-14.868687 40.210101h190.707071L518.981818 157.220202z m0 0M665.212121 547.038384l-146.230303-199.111111-146.10101 199.111111 14.868687 40.210101H197.042424l321.939394-428.99394v-1.034343l321.939394 428.993939H650.343434l14.868687-39.175757z m0 0"  horiz-adv-x="1037" />

    
    <glyph glyph-name="baiyin" unicode="&#58920;" d="M1025.292929 612.719192L799.676768 837.30101c-8.533333 8.533333-19.006061 12.670707-30.771717 12.670707H269.058586c-11.636364 0-22.238384-4.266667-30.771717-12.670707L12.670707 612.719192c-8.533333-8.533333-12.670707-19.006061-12.670707-30.771717v-88.953536c0-10.60202 4.266667-21.20404 10.60202-28.573737l476.573738-532.816162c16.937374-19.006061 46.545455-19.006061 63.612121 0l476.573737 532.816162c7.369697 7.369697 10.60202 17.971717 10.60202 28.573737v88.953536c0 11.636364-4.266667 22.238384-12.670707 30.771717z m-73.050505-132.39596L518.981818-4.783838l-433.131313 485.10707V583.111111L295.563636 791.660606h448l209.713132-208.678788v-102.787879h-1.034344z m0 0M295.563636 792.694949L85.850505 584.145455v-102.787879l433.260606-486.141414 433.260606 485.10707V583.111111L742.529293 792.694949H295.563636z m223.418182-635.474747l-321.939394 430.028283h190.707071l-14.868687-40.210101 146.10101-199.111111 146.230303 198.076767-14.868687 40.210101h190.707071L518.981818 157.220202z m0 0M665.212121 547.038384l-146.230303-199.111111-146.10101 199.111111 14.868687 40.210101H197.042424l321.939394-428.99394v-1.034343l321.939394 428.993939H650.343434l14.868687-39.175757z m0 0"  horiz-adv-x="1037" />

    
    <glyph glyph-name="bojin" unicode="&#58921;" d="M65.828571 669.257143l7.314286-336.457143 431.542857-394.971429zM58.514286 665.6l442.514285-735.085714-135.314285 566.857143zM128 563.2l-3.657143-62.171429 51.2-18.285714zM124.342857 559.542857l54.857143-25.6-7.314286-54.857143zM248.685714 804.571429l-80.457143-358.4 351.085715-526.628572zM241.371429 804.571429l270.628571-896 3.657143 636.342857zM281.6 683.885714l-18.285714-73.142857 54.857143-40.228571zM277.942857 680.228571l58.514286-47.542857-25.6-62.171428zM193.828571 541.257143l-29.257142-98.742857 347.428571-508.342857-43.885714 296.228571zM958.171429 669.257143l-7.314286-336.457143-431.542857-394.971429zM965.485714 665.6l-442.514285-735.085714 135.314285 566.857143zM896 563.2l3.657143-62.171429-51.2-18.285714zM899.657143 559.542857l-54.857143-25.6 7.314286-54.857143zM775.314286 804.571429l80.457143-358.4-351.085715-526.628572zM782.628571 804.571429l-270.628571-896-3.657143 636.342857zM742.4 683.885714l18.285714-73.142857-54.857143-40.228571zM746.057143 680.228571l-58.514286-47.542857 25.6-62.171428zM830.171429 541.257143l29.257142-98.742857-347.428571-508.342857 43.885714 296.228571zM504.685714 896l-197.485714-343.771429 197.485714-654.628571zM504.685714 896v-1005.714286l201.142857 650.971429zM504.685714 731.428571l-73.142857-106.057142 73.142857-91.428572zM504.685714 731.428571l69.485715-106.057142-69.485715-91.428572z"  horiz-adv-x="1024" />

    
    <glyph glyph-name="jiaofei" unicode="&#58949;" d="M998.81 89.205H781.546c-5.734 0-11.44-1.55-16.53-4.506L562.322-36.279H258.107a44.53 44.53 0 0 0-44.413 44.5v19.134c0 24.547 19.924 44.5 44.413 44.5h144.15a69.263 69.263 0 0 1 16.266-26.477l6.35-6.378a68.315 68.315 0 0 1 48.478-20.1c17.496 0 34.173 6.612 46.373 18.052l171.008 130.37a32.68 32.68 0 0 1 6.144 45.524c-10.562 13.868-31.832 16.618-45.378 6.056L478.94 87.332l-2.838-2.516c-1.872-1.843-3.452-1.843-5.266-0.087l-6.436 6.436a3.482 3.482 0 0 0-1.024 2.546c0 0.614 0.117 1.697 0.819 2.399l268.288 263.08H998.84a32.475 32.475 0 0 1 0 64.863h-82.096c1.141 12.756 1.668 23.815 1.668 34.348 0 226.626-184.32 411.004-410.887 411.004-226.597 0.03-410.975-184.32-410.975-410.946 0-81.334 33.265-204.478 94.939-272.53 11.527-12.814 32.827-14.014 45.817-2.399a32.68 32.68 0 0 1 2.37 45.875c-48.333 53.336-78.234 160.446-78.234 229.054 0 190.874 155.297 346.17 346.17 346.17 190.816 0 346.054-155.296 346.054-346.17 0-10.59-0.644-21.855-1.96-34.318H720.69c-7.46 0-14.687-2.809-21.094-8.046a23.113 23.113 0 0 1-5.969-4.213L418.611 142.277a57.841 57.841 0 0 1-4.886-5.617H258.107A109.422 109.422 0 0 1 148.83 27.326v-19.163a109.363 109.363 0 0 1 109.276-109.217h313.256c5.676 0 11.41 1.58 16.56 4.593l202.605 120.744H998.78a32.475 32.475 0 1 1 0.03 64.922zM385.375 435.463a32.475 32.475 0 0 1 0-64.863h83.646v-56.29a32.417 32.417 0 0 1 64.863 0V370.6h83.588c17.905 0 32.505 14.541 32.505 32.417 0 17.906-14.6 32.446-32.505 32.446h-83.588v29.989h83.588c17.905 0 32.505 14.54 32.505 32.417s-14.6 32.417-32.505 32.417h-38.678l39.088 81.276a32.3 32.3 0 0 1-15.156 43.242c-15.594 7.46-35.81 0.351-43.33-15.214l-52.575-109.304h-17.32L436.926 639.62a32.944 32.944 0 0 1-43.33 15.096 32.475 32.475 0 0 1-15.155-43.271l39.03-81.189h-32.154a32.417 32.417 0 1 1 0-64.833h83.646v-29.96h-83.588z"  horiz-adv-x="1032" />

    
    <glyph glyph-name="tubiao-" unicode="&#58925;" d="M1024.103 499.408L813.804 787.824a26.57 26.57 0 0 1-20.107 11.182H232.56a36.725 36.725 0 0 1-24.62-17.85C181.113 736.43 11.182 483.661 11.182 483.661L0 465.863l13.439-15.388L469.58-81.991a39.7 39.7 0 0 1 11.182-8.925c6.72-4.462 33.545-11.181 49.19 0 4.462 2.257 6.719 6.72 11.181 8.925l429.317 440.499a23.287 23.287 0 0 1 0 35.904 20.979 20.979 0 0 1-33.545 0L565.703 12.028 726.71 454.886h263.847c2.257 0 20.158 0 24.62 4.462l2.206 2.257c13.439 6.668 15.644 22.364 6.72 38.008zM798.416 747.61L697.576 510.59H335.4l-89.198 237.022zM210.3 695.96l75.912-187.627H84.991zM73.809 459.143h225.687l145.311-435.985z m431.523-465.067L351.045 459.143h322.013z m243.536 514.257l78.272 174.394 125.41-176.549H748.868z m0 0M637.05 660.055l-244.715 1.026a25.954 25.954 0 0 0 0 51.857l244.562-0.77a25.954 25.954 0 0 0 0-51.856z"  horiz-adv-x="1029" />

    
    <glyph glyph-name="tijiao" unicode="&#59060;" d="M797.3 137.6L460.1 241.3l337.2 389.1-440.9-389.1L97 345.1 927 786 797.3 137.6zM460.1-18V163.5l103.8-51.9L460.1-18z m0 0"  horiz-adv-x="1024" />

    
    <glyph glyph-name="ruzhang" unicode="&#58967;" d="M980.31050813 287.47223021c27.14843525-15.83658723 38.46028327-40.72265287 33.93554406-75.41232016l-20.36132643-157.6117491c-4.52473921-31.67317446-25.64018885-47.5097617-62.59222574-47.5097617H93.46162318c-37.70616007 0-58.06748652 15.83658723-62.59222573 47.5097617l-20.36132644 157.6117491c-4.52473921 34.68966726 6.03298562 59.57573291 31.67317445 75.41232016L202.80948739 416.42729765h94.26540018L158.31621851 270.88151978999997h111.61023381c6.03298562 0 10.55772482-2.2623696 13.57421763-6.78710884l39.96852969-106.3313714h377.06160072l39.96852969 106.3313714c3.01649281 4.52473921 6.78710881 6.78710881 11.31184803 6.78710884h113.87260341l-138.75866906 146.29990108H821.19051261l159.11999552-129.70919066z m-311.45288222 291.84567896v-67.87108812h-107.0854946v-36.19791366h107.0854946V411.90255844h-107.0854946v-122.16795863h-100.29838581V411.90255844h-107.08549461v63.34634895h107.08549461v36.19791366h-107.08549461v67.87108812H444.12891187l-120.65971223 181.74369158h100.29838579l70.88758093-122.92208184 12.82009443-36.19791368 88.23241457 159.11999552H700.53080036l-117.64321941-181.74369158h85.97004496z"  horiz-adv-x="1024" />

    
    <glyph glyph-name="shenhe" unicode="&#58912;" d="M102.838-121.158c-41.452 11.199-78.152 46.496-93.426 89.862-6.665 18.997-7.744 76.532-7.744 414.797 0 439.083-1.484 420.084 36.162 462.991 11.063 12.603 31.005 28.281 44.283 34.866l24.206 11.928h746.017l30.251-15.49c23.397-12.008 34.92-22.29 50.705-45.281l20.402-29.766 1.646-73.427c1.914-84.735-0.919-94.612-27.066-94.612-28.202 0-33.275 12.548-33.275 82.307 0 65.278-5.424 80.363-37.375 104.11-14.301 10.66-17.136 10.713-375.208 10.713-352.864 0-361.175-0.215-378.662-10.362-10.578-6.126-22.533-19.619-29.359-33.084l-11.469-22.722-0-381.902v-381.902l11.469-22.72c20.211-39.993 30.601-43.043 155.895-46.011 117.657-2.779 118.253-2.94 118.414-31.707 0.162-26.85-12.007-29.767-122.299-29.389-63.039 0.218-108.455 2.698-123.567 6.801v0zM981.787-124.775c-4.238 1.486-41.127 36.002-82.010 76.667l-74.319 73.913-43.985-27.688c-25.556-16.082-62.851-33.894-89-42.5-41.423-13.602-51.057-14.789-119.088-14.681-69.649 0.135-76.639 1.080-118.737 16.057-63.443 22.587-97.093 44.149-146.694 93.991-49.006 49.195-75.667 91.294-95.663 150.985-12.468 37.242-13.736 48.007-13.736 117.792 0 69.811 1.268 80.553 13.736 117.792 19.995 59.665 46.632 101.736 95.663 151.065 48.899 49.221 90.565 75.749 150.58 95.881 37.025 12.414 48.008 13.681 117.417 13.681 69.406 0 80.389-1.268 117.413-13.681 60.151-20.159 101.656-46.63 150.58-95.96 74.562-75.182 107.134-148.287 111.263-249.669 3.671-90.726-14.949-160.189-61.823-230.512l-25.204-37.806 77.205-78.045c50.462-50.974 77.232-81.764 77.232-88.808 0-5.94-6.045-15.572-13.44-21.4-14.168-11.172-15.193-11.442-27.389-7.072v0zM642.306 7.374c107.081 22.48 194.865 99.927 235.073 207.41 12.818 34.3 14.41 45.228 14.708 102.41 0.323 57.32-1.134 68.383-13.978 105.865-25.906 75.722-81.416 141.001-151.041 177.728-48.221 25.42-76.504 33.651-128.152 37.294-62.176 4.425-109.048-4.83-163.75-32.302-54.025-27.147-92.911-61.446-126.185-111.343-37.159-55.726-49.519-99.361-49.519-174.678 0-53.971 1.727-66.547 14.33-103.302 27.012-78.958 84.223-144.263 158.568-181.1 68.734-34.028 137.465-43.203 209.947-27.983v0zM559.218 74.245c-13.17 9.283-15.301 33.409-3.941 44.824 4.075 4.073 20.673 9.093 36.917 11.117 45.551 5.694 80.309 21.158 111.128 49.411 33.92 31.089 52.189 66.789 61.364 119.816 7.395 42.773 12.36 49.357 35.703 47.278 25.070-2.185 31.79-20.671 24.207-66.249-17.272-103.516-94.073-185.472-193.677-206.63-44.365-9.445-57.749-9.364-71.701 0.432v0zM354.855 383.986c-14.328 13.358-14.059 19.996 2.105 52.027 24.828 49.141 96.043 111.424 127.589 111.586 15.354 0.053 28.659-16.866 26.689-33.974-1.269-11.038-8.42-18.918-30.519-33.544-29.766-19.727-58.048-50.705-72.647-79.526-13.98-27.632-34.542-34.029-53.217-16.569v0zM354.855 383.986z"  horiz-adv-x="1024" />

    
    <glyph glyph-name="shangyi" unicode="&#58946;" d="M37.47081482 461.42957037h330.47134815c16.14127408 0 29.12711111 12.98583703 29.12711111 29.12711111s-12.98583703 29.12711111-29.12711111 29.12711111H37.47081482c-16.14127408 0-29.12711111-12.98583703-29.12711112-29.12711111s12.98583703-29.12711111 29.12711112-29.12711111zM37.47081482 199.52829629999997h417.48859259c16.14127408 0 29.12711111 12.98583703 29.12711111 29.12711111s-12.98583703 29.12711111-29.12711111 29.12711111H37.47081482c-16.14127408 0-29.12711111-12.98583703-29.12711112-29.12711111s12.98583703-29.12711111 29.12711112-29.12711111zM525.34992592 32.047407410000005H37.47081482c-16.14127408 0-29.12711111-12.98583703-29.12711112-29.12711111s12.98583703-29.12711111 29.12711112-29.12711112h487.8791111c16.14127408 0 29.12711111 12.98583703 29.12711111 29.12711112s-12.98583703 29.12711111-29.12711111 29.12711111zM1006.67543703 540.19413333L797.0816 749.78797037c-3.03407408 3.03407408-6.67496297 5.33997037-10.55857778 6.67496296-0.12136297 0-0.36408889 0.12136297-0.48545185 0.12136297-0.60681482 0.24272592-1.33499259 0.48545185-2.06317037 0.60681481l-1.45635555 0.36408889c-0.36408889 0.12136297-0.72817778 0.12136297-1.09226667 0.24272592-0.60681482 0.12136297-1.33499259 0.24272592-1.94180741 0.24272593h-0.60681482c-0.72817778 0.12136297-1.57771852 0.12136297-2.42725925 0.12136297h-0.12136297-0.12136296c-8.73813333 0-16.50536297-3.76225185-21.84533334-9.8304L546.10299259 540.07277037c-11.40811852-11.40811852-11.40811852-29.85528889 0-41.14204445 5.70405925-5.70405925 13.1072-8.49540741 20.63170371-8.4954074s14.92764445 2.79134815 20.6317037 8.4954074l159.95638518 159.95638519V2.920296300000018c0-16.14127408 12.98583703-29.12711111 29.12711112-29.12711112s29.12711111 12.98583703 29.12711111 29.12711112V659.00847408l159.95638518-159.95638519c11.40811852-11.40811852 29.85528889-11.40811852 41.14204444 0 11.40811852 11.40811852 11.40811852 29.85528889 0 41.14204444z"  horiz-adv-x="1024" />

    
    <glyph glyph-name="xiayi" unicode="&#58947;" d="M37.47081482 270.76835555h330.47134815c16.14127408 0 29.12711111-12.98583703 29.12711111-29.1271111s-12.98583703-29.12711111-29.12711111-29.12711112H37.47081482c-16.14127408 0-29.12711111 12.98583703-29.12711112 29.12711112s12.98583703 29.12711111 29.12711112 29.1271111zM37.47081482 532.6696296299999h417.48859259c16.14127408 0 29.12711111-12.98583703 29.12711111-29.12711111s-12.98583703-29.12711111-29.12711111-29.12711111H37.47081482c-16.14127408 0-29.12711111 12.98583703-29.12711112 29.12711111s12.98583703 29.12711111 29.12711112 29.12711111zM525.34992592 700.15051852H37.47081482c-16.14127408 0-29.12711111 12.98583703-29.12711112 29.12711111s12.98583703 29.12711111 29.12711112 29.12711112h487.8791111c16.14127408 0 29.12711111-12.98583703 29.12711111-29.12711112s-12.98583703-29.12711111-29.12711111-29.12711111zM1006.67543703 191.88242963000005L797.0816-17.711407409999993c-3.03407408-3.03407408-6.67496297-5.33997037-10.55857778-6.67496296-0.12136297 0-0.36408889-0.12136297-0.48545185-0.12136296-0.60681482-0.24272592-1.33499259-0.48545185-2.06317037-0.60681482l-1.45635555-0.36408888c-0.36408889-0.12136297-0.72817778-0.12136297-1.09226667-0.24272594-0.60681482-0.12136297-1.33499259-0.24272592-1.94180741-0.24272592h-0.60681482c-0.72817778-0.12136297-1.57771852-0.12136297-2.42725925-0.12136296h-0.12136297-0.12136296c-8.73813333 0-16.50536297 3.76225185-21.84533334 9.8304L546.10299259 192.12515555000004c-11.40811852 11.40811852-11.40811852 29.85528889 0 41.14204445 5.70405925 5.70405925 13.1072 8.49540741 20.63170371 8.49540741s14.92764445-2.79134815 20.6317037-8.49540741L747.32278518 73.31081482000002V729.27762963c0 16.14127408 12.98583703 29.12711111 29.12711112 29.12711112s29.12711111-12.98583703 29.12711111-29.12711112v-656.08817778l159.95638518 159.95638518c11.40811852 11.40811852 29.85528889 11.40811852 41.14204444 0 11.40811852-11.40811852 11.40811852-29.85528889 0-41.2634074z"  horiz-adv-x="1024" />

    
    <glyph glyph-name="qiyong" unicode="&#58914;" d="M509.952-125.38311110999996c-280.91733333 1.13777778-508.58666667 230.51377778-507.44888889 511.43111111s230.51377778 508.58666667 511.43111111 507.44888889 508.58666667-230.51377778 507.44888889-511.43111111-230.51377778-508.58666667-511.43111111-507.44888889z m3.75466667 948.56533333c-242.11911111 0.91022222-439.97866667-195.35644445-440.88888889-437.47555555S268.17422222-54.27200000000005 510.29333333-55.18222221999997 950.272 140.17422222000005 951.18222222 382.29333333 755.82577778 822.272 513.70666667 823.18222222zM459.43466667 156.10311111L260.66488889 354.87288889l49.72088889 49.72088889 149.04888889-149.04888889 298.09777778 298.09777778 49.72088888-49.72088889z"  horiz-adv-x="1024" />

    
    <glyph glyph-name="tingyong_line" unicode="&#59021;" d="M872.448 744.448c-198.99733333 198.99733333-521.78488889 198.99733333-720.896 0s-198.99733333-521.78488889 0-720.896 521.78488889-198.99733333 720.896 0 198.99733333 521.78488889 0 720.896zM212.76444445 683.23555555c154.39644445 154.39644445 398.44977778 164.52266667 564.6791111 30.49244445L182.272 118.55644444999996C48.24177778 284.78577778 58.368 528.9528888899999 212.76444445 683.23555555z m33.792-628.96355555l595.17155555 595.17155555C975.75822222 483.21422222 965.632 239.04711110999995 811.23555555 84.76444445000004s-398.44977778-164.52266667-564.6791111-30.49244445z"  horiz-adv-x="1024" />

    
    <glyph glyph-name="yejian1" unicode="&#59011;" d="M735.963429 195.437714c-200.752762 13.312-355.961905 187.196952-339.382858 387.657143 10.776381 129.999238 105.813333 230.107429 199.631239 285.744762 10.678857 6.339048 2.584381 20.431238-9.70362 22.137905C271.408762 935.643429-6.144 675.693714 27.111619 350.159238c20.967619-204.946286 175.152762-379.172571 375.954286-425.155048A492.30019 492.30019 0 0 1 979.626667 238.689524c4.242286 12.04419-9.752381 23.064381-20.431238 16.042666a360.643048 360.643048 0 0 0-223.232-59.294476"  horiz-adv-x="1024" />

    
    <glyph glyph-name="dayin3" unicode="&#59253;" d="M932.8 584h-65.6V804.8C867.2 855.2 826.4 896 776 896H248c-50.4 0-91.2-40.8-91.2-91.2V584h-66.4C40.8 584 0 543.2 0 492.8v-292c0-50.4 40.8-91.2 91.2-91.2h66.4v-145.6c0-50.4 40.8-91.2 91.2-91.2h528c50.4 0 91.2 40.8 91.2 91.2V109.6h65.6c50.4 0 91.2 40.8 91.2 91.2V492.8c-0.8 50.4-41.6 91.2-92 91.2z m-696.8 12v184c0 21.6 17.6 39.2 39.2 39.2h472.8c21.6 0 39.2-17.6 39.2-38.4V584H236v12z m552-604.8c0-21.6-17.6-39.2-39.2-39.2H275.2c-21.6 0-39.2 17.6-39.2 38.4V305.6h552v-314.4z m60 393.6c-32 0.8-57.6 28-56.8 60 0.8 32 28 57.6 60 56.8h2.4c32-3.2 56-31.2 53.6-63.2-3.2-30.4-28.8-54.4-59.2-53.6zM320 103.2h281.6v-76.8H320v76.8z m0 128h384v-76.8H320v76.8z"  horiz-adv-x="1024" />

    
    <glyph glyph-name="gantanhao1" unicode="&#59239;" d="M512 893.44C229.888 893.44 1.024 664.576 1.024 382.464S229.888-128 512-128c282.112 0 510.976 228.864 510.976 510.976S794.624 893.44 512 893.44z m0-829.952c-35.328 0-64 28.672-64 64s28.672 64 64 64 64-28.672 64-64-28.672-64-64-64z m64 319.488c0-35.328-28.672-64-64-64s-64 28.672-64 64V638.464c0 35.328 28.672 64 64 64s64-28.672 64-64v-255.488z"  horiz-adv-x="1024" />

    
    <glyph glyph-name="yejian2" unicode="&#58913;" d="M72.778107 396.866616c0-261.113809 191.11686-440.820677 452.010669-452.011669 202.599852-8.703994 319.918766 98.008928 429.264685 263.599807-52.441962-19.600986-109.34592-43.225968-164.493879-43.225969-129.898905 0-255.042813 43.445968-346.907746 135.309901-91.791933 91.719933-148.769891 231.199831-148.769891 361.097736 0 55.14796 22.893983 111.978918 42.422969 164.420879C178.466029 727.902373 72.850107 586.081477 72.850107 396.792616z m80.819941-371.044729A521.349618 521.349618 0 0 0 0.00216 396.866616c0 115.196916 37.009973 223.956836 107.005922 314.505769A524.201616 524.201616 0 0 0 226.299994 823.570303 533.343609 533.343609 0 0 0 376.749884 894.956251a25.599981 25.599981 0 0 0 29.987978-36.277974c-32.912976-64.363953-48.272965-125.655908-48.272965-193.091858 0-239.902824 195.139857-435.189681 435.115682-435.189681 67.435951 0 128.728906 15.359989 193.092858 48.419964a25.599981 25.599981 0 0 0 36.277974-30.060978 534.587608 534.587608 0 0 0-71.312948-150.45089A524.201616 524.201616 0 0 0 839.369545-20.988078a509.646627 509.646627 0 0 0-314.506769-107.004922 521.933618 521.933618 0 0 0-371.263728 153.814887z"  horiz-adv-x="1024" />

    
    <glyph glyph-name="dianhua" unicode="&#58926;" d="M718.62044445 440.72262163c0-20.26154667 13.48949333-33.75225363 33.75104-33.75225363s33.75346725 13.49070697 33.75346725 33.75225363A203.15553185 203.15553185 0 0 1 583.55560297 643.29197037c-20.26154667 0-33.75225363-13.49070697-33.75225364-33.75225362s13.54410667-33.75346725 33.75225364-33.75346727a135.43742578 135.43742578 0 0 0 135.06484148-135.06362785z m135.06362785 0c0-20.26154667 13.48949333-33.75225363 33.75104-33.75225363s33.75346725 13.49070697 33.75346725 33.75225363c0 185.66591525-151.96706133 337.63297659-337.63176296 337.63297659-20.2627603 0-33.75346725-13.54410667-33.75346726-33.80565333s13.54410667-33.75225363 33.75225364-33.75225364c148.55433482 0 270.12846933-121.57413452 270.12846933-270.07506962zM397.8896877 558.88402963c37.16498015 37.11158045 40.52430697 94.53932089 6.77205333 135.06362785L299.99104 825.59855882c-33.75225363 43.88484741-97.8986477 50.65690075-141.83568118 16.90343348-3.35932682-3.41272652-6.71865363-3.41272652-6.71865364-6.77205333l-91.17999407-91.17999408c-87.76726755-87.76726755 37.16498015-324.08886992 263.40860207-550.28030578C549.80456297-31.920583110000052 782.71222518-153.4922903700001 870.47949275-69.08434963000002l91.17999407 91.17999408c40.52552059 40.52430697 40.52552059 104.67070103 0 141.78228147l-6.71865364 6.77205333-131.7030874 104.67070105c-40.47212089 33.75104-97.84646163 30.39292682-135.01144178-6.77205333l-57.37434075-57.42774045c-60.78706725 37.16498015-114.80086755 77.68928711-162.09722784 124.9322477-47.24296059 47.2963603-87.71508148 101.31137422-124.88006163 162.09844148l54.01501392 60.73366755z m-47.24296059 91.17999407c10.13138015-13.54410667 10.13138015-33.80565333-3.41272652-43.93703348l-74.27656059-77.6358874a35.88581452 35.88581452 0 0 1-6.71865363-40.5255206 875.54275555 875.54275555 0 0 1 148.55433481-199.15662222 875.64834133 875.64834133 0 0 1 199.15662223-148.55433482 35.88581452 35.88581452 0 0 1 40.52309334 6.77205334l77.63710103 77.6358874c13.54410667 13.49070697 30.39292682 13.49070697 43.93703347 3.36054045l131.65090134-108.03002785s3.35932682 0 3.35932682-3.35932682a32.63328711 32.63328711 0 0 0 0-47.29636029l-91.17999408-91.17999408c-43.83023408-43.83023408-253.17042252 67.55790697-452.38044444 263.40860208-199.15662222 195.79729541-307.18665008 408.44462459-263.3030163 452.38044444l94.48592119 94.54053452c13.54410667 10.13138015 37.16498015 10.13138015 47.2963603-6.77205334l104.67070103-131.70430103z"  horiz-adv-x="1024" />

    
    <glyph glyph-name="changyongmoban" unicode="&#59348;" d="M939.924211 667.162947c23.498105-13.096421 37.510737-34.762105 37.510736-58.044631 0-23.174737-14.012632-44.894316-37.564631-57.990737l-378.98779-211.536842c-14.605474-8.138105-31.744-12.234105-48.882526-12.234105-17.138526 0-34.223158 4.096-48.882526 12.234105L84.075789 551.073684C60.631579 564.224 46.565053 585.943579 46.565053 609.118316c0 23.282526 14.012632 44.948211 37.564631 58.044631L463.063579 878.699789a103.855158 103.855158 0 0 0 97.818947 0l378.98779-211.536842z m0-225.17221c23.498105-13.096421 37.510737-34.816 37.510736-57.990737 0-23.174737-14.012632-44.894316-37.564631-57.990737l-378.98779-211.590737c-14.605474-8.138105-31.744-12.180211-48.882526-12.18021-17.138526 0-34.223158 4.042105-48.882526 12.18021L84.075789 326.009263C60.631579 339.105684 46.565053 360.825263 46.565053 384c0 23.174737 14.012632 44.894316 37.564631 57.990737l46.726737 26.138947 91.728842-51.2-59.014737-32.929684L512 189.547789 860.375579 384 801.414737 416.875789l91.674947 51.2 46.780632-26.138947z m0-225.172211c23.498105-13.096421 37.510737-34.762105 37.510736-57.990737 0-23.174737-14.012632-44.894316-37.564631-57.990736L560.882526-110.753684c-14.605474-8.138105-31.744-12.234105-48.882526-12.234105-17.138526 0-34.223158 4.096-48.882526 12.234105L84.075789 100.837053c-23.444211 13.096421-37.510737 34.816-37.510736 57.990736 0 23.228632 14.012632 44.894316 37.564631 57.990737l46.726737 26.138948 91.728842-51.2-59.014737-32.87579L512-35.678316l348.375579 194.452211-58.960842 32.929684 91.674947 51.2 46.780632-26.138947z"  horiz-adv-x="1024" />

    
    <glyph glyph-name="QQ" unicode="&#59124;" d="M512 832c247 0 448-201 448-448S759-64 512-64 64 137 64 384 265 832 512 832m0 64C229.2 896 0 666.8 0 384s229.2-512 512-512 512 229.2 512 512S794.8 896 512 896zM802.2 276.6c-13.4 78-69.9 129-69.9 129 8.1 70.8-21.5 83.3-21.5 83.3C704.6 707.9 516 704.1 512 704c-4 0.1-192.6 3.9-198.8-215.1 0 0-29.6-12.6-21.5-83.3 0 0-56.5-51.1-69.9-129 0 0-7.2-131.7 64.5-16.1 0 0 16.1-43.9 45.7-83.3 0 0-52.9-17.9-48.4-64.5 0 0-1.8-52 112.9-48.4 0 0 80.6 6.3 104.8 40.3h21.4c24.2-34.1 104.8-40.3 104.8-40.3 114.7-3.6 112.9 48.4 112.9 48.4 4.5 46.6-48.4 64.5-48.4 64.5 29.6 39.4 45.7 83.3 45.7 83.3 71.7-115.7 64.5 16.1 64.5 16.1z"  horiz-adv-x="1024" />

    
    <glyph glyph-name="xinxi4" unicode="&#58933;" d="M1024 384C1024 631.995733 794.7776 833.041067 512 833.041067S0 631.995733 0 384c0-128.597333 61.7472-244.497067 160.529067-326.3488a520.840533 520.840533 0 0 0-57.053867-60.7744c-21.7088-19.677867-9.710933-56.081067 19.438933-59.0336 17.117867-1.7408 34.5088-2.628267 52.087467-2.628267 99.857067 0 336.059733-0.256 336.9984-0.256h0.034133C794.794667-65.024 1024 136.00426700000003 1024 384z m-512 51.2a51.2 51.2 0 1 0 0-102.4 51.2 51.2 0 0 0 0 102.4z m-274.1248 0a51.2 51.2 0 1 0 0-102.4 51.2 51.2 0 0 0 0 102.4z m548.2496-102.4a51.2 51.2 0 1 0 0 102.4 51.2 51.2 0 0 0 0-102.4z"  horiz-adv-x="1024" />

    
    <glyph glyph-name="xiawu3" unicode="&#58904;" d="M196.914042 740.052961a21.227613 21.227613 0 0 1 21.127062 21.104716V873.786923a21.127061 21.127061 0 1 1-42.198261 0v-112.629246a21.227613 21.227613 0 0 1 21.071199-21.127061z m322.212822 0a21.227613 21.227613 0 0 1 21.093544 21.104716V873.786923a21.127061 21.127061 0 0 1-42.254123 0v-112.629246a21.227613 21.227613 0 0 1 21.02651-21.104716zM637.074186 277.782582a111.076278 111.076278 0 1 0-0.100552 0z m49.225717-145.509701a8.703321 8.703321 0 0 0-12.289671-12.289671l-36.869012 36.869013-36.869012-36.869013a8.703321 8.703321 0 1 0-12.37905 12.211464l36.869012 36.869012-36.869012 36.869012a8.748011 8.748011 0 0 0 12.28967 12.289671l36.869013-36.869012 36.869012 36.869012a8.748011 8.748011 0 0 0 12.37905-12.289671l-36.869012-36.81315z m-93.256256 254.452046a12.602499 12.602499 0 0 0 11.172428-4.033246 17.685953 17.685953 0 0 0 2.860142-10.368013 17.07147 17.07147 0 0 0-2.860142-10.90429 13.786776 13.786776 0 0 0-11.172428-3.552832h-86.988524v-77.558995a12.457257 12.457257 0 0 0-4.614213-11.172428 20.534923 20.534923 0 0 0-11.038358-2.759589 21.786234 21.786234 0 0 0-11.172428 2.759589 11.853946 11.853946 0 0 0-4.603041 11.172428v77.603685h-97.356537a13.820293 13.820293 0 0 0-11.172428 3.552832 21.786234 21.786234 0 0 0 0 21.227613 12.825947 12.825947 0 0 0 11.172428 4.044419h97.300675v65.135255h-40.801707a201.394186 201.394186 0 0 0-15.641399-21.227614c-5.586214-6.569388-11.563463-13.16112-17.954091-19.74168a18.389816 18.389816 0 0 0-12.982362-6.99394 16.021262 16.021262 0 0 0-10.904289 7.731321 12.825947 12.825947 0 0 0-3.351729 11.909808 31.673833 31.673833 0 0 0 7.4967 10.390358 242.765687 242.765687 0 0 1 23.696719 27.640586 159.207098 159.207098 0 0 1 18.780851 35.438942 23.964858 23.964858 0 0 0 7.317941 11.049531 13.775604 13.775604 0 0 0 11.92098 1.60883c7.183871-1.653519 11.172428-4.334902 12.200292-7.965941a26.813827 26.813827 0 0 0-3.08359-16.110642l-1.117243-2.569658a24.456445 24.456445 0 0 1-1.117243-2.536141h134.761826a13.194637 13.194637 0 0 0 11.172428-4.100281 17.574229 17.574229 0 0 0 3.08359-10.636152 16.132986 16.132986 0 0 0-3.08359-10.256288 13.853811 13.853811 0 0 0-11.172428-3.675729h-77.760099v-65.135255z m0 0M502.870981 128.463083H63.336494a21.227613 21.227613 0 0 0-21.115889 21.138234V613.379973a21.227613 21.227613 0 0 0 21.115889 21.127061h591.434817a21.227613 21.227613 0 0 0 21.037682-21.127061V300.797784a139.219624 139.219624 0 0 0 42.254123-19.41768V740.92441a63.526425 63.526425 0 0 1-63.291805 63.347666h-63.247114v-37.706944a70.609745 70.609745 0 0 0-141.208317 0V804.272076H267.680201v-37.706944a70.609745 70.609745 0 0 0-141.208317 0V804.272076H63.336494A63.537598 63.537598 0 0 1 0 740.92441v-591.323093a63.526425 63.526425 0 0 1 63.336494-63.336494h458.54996a139.052038 139.052038 0 0 0-19.104852 42.19826z m0 0M145.062804 471.434276q-6.502353 0-10.055185 3.843315a14.166639 14.166639 0 0 0-3.854488 10.055185 13.328707 13.328707 0 0 0 3.854488 9.854082q3.597522 3.854488 10.055185 3.854487h197.115146q6.234215 0 9.854082-3.608694a14.211328 14.211328 0 0 0 3.843315-10.055185 13.339879 13.339879 0 0 0-3.843315-9.854082 12.937672 12.937672 0 0 0-9.854082-4.100281h-88.943699v-178.390156a17.037953 17.037953 0 0 0-4.100281-11.049532 14.133121 14.133121 0 0 0-9.865253-4.100281 14.702915 14.702915 0 0 0-9.854082 3.843316 16.903883 16.903883 0 0 0-3.843315 11.306497V471.434276z m122.829673-62.018148q-5.530352 4.792972-5.764973 10.569117a13.082913 13.082913 0 0 0 4.100281 9.854082 13.965535 13.965535 0 0 0 9.619461 4.815316q5.508007-0.245793 10.81491-4.815316 24.031892-21.875614 49.5162-59.370282 3.832143-6.010766 3.083591-11.284153a14.781122 14.781122 0 0 0-6.010767-9.373667 15.060433 15.060433 0 0 0-10.557944-2.156278c-3.530487 0.804415-6.703457 3.184142-9.608288 7.183871q-25.696584 36.299218-45.192471 54.57731z m0 0M683.808452 134.261573a8.669804 8.669804 0 0 0-12.289671-12.233808l-36.757288 36.757288-36.746116-36.757288a8.669804 8.669804 0 1 0-12.28967 12.233808l36.746115 36.757288-36.746115 36.757288a8.689914 8.689914 0 1 0 12.28967 12.289671l36.746116-36.757288 36.757288 36.757288a8.689914 8.689914 0 1 0 12.289671-12.289671l-36.757288-36.757288z"  horiz-adv-x="1840" />

    
    </font>
</defs>
</svg>
